<?xml version="1.0" encoding="UTF-8"?>
<svg id="Layer_1" data-name="Layer 1" xmlns="http://www.w3.org/2000/svg" width="139.03cm" height="24.51cm" viewBox="0 0 3941.08 694.65">
  <path d="M629.46,285.04l70.16-50.84c43.08-25.1,90.84-37.93,139.82-46.18,6.17-8.1,8.22-16.68,17.35-22.65,32.43-21.21,70.96,9.68,56.48,46.48-12.97,32.97-70.45,27.67-71.88-10.75-54.25,7.39-107.55,26.64-151.9,58.94,27.04,27.39,75.8,37.05,112.76,30.79,23.22-3.93,17.23-6.36,31.17-18.83,21.17-18.95,57.12-9.97,63.15,18.92,11.99,57.44-75.73,64.9-75.12,8.11-50.96,10.67-101.94,6.89-142.11-29.03l-3.93-.21c-48.57,34.73-88.41,80.48-128.03,124.26-.04,5.79,20.43,15.78,26.1,17.97,36.09,13.94,78.36,9.16,114.83-1.13,4.13-1.16,18.96-5.08,21.11-6.89,5.14-4.3,8-27.94,23.05-38.95,44.16-32.32,90.38,33.9,49.04,65.04-22.71,17.11-49.33,6.1-65-14.37-57.06,20.91-128.92,29.52-179.76-10.47l-91.28,89.77c24.04-2.89,47.64-11.18,71.59-15.39,84.31-14.84,161.83-2.95,244.78,12.04,84.36,15.24,135.97,45.81,213.46-11.8,66.86-49.71,57.45-127.66,96.57-193.43,13.12-22.07,33.57-48.05,50.58-67.42,6.87-7.82,22.79-26.67,30.04-31.95,12.7-9.26,13.91,4.69,16.84,15.13,11.55,41.17,22.93,95.47,20.25,137.95-4.66,73.6-65.7,138.91-124.09,177.91l43.52-10.48c111.53-38.73,205.83-123.74,238.64-239.26-49.05-23.97-78.19-100.23-74.13-152.23,3.38-43.21,27.9-79.96,68.97-41.07,20.37-34.96,61.56-20.61,71.02,14.03,45.14-32.93,59.92,7.39,55.73,48.76-3.49,34.45-38.52,103.15-67.89,122.11-11.96,7.72-23.27,10.05-36.91,13.09-8.19,25.58-18.54,50.29-30.96,74.02,10.77-4.41,19.97-11.54,30.64-16.34,33.13-14.9,72.5-18.58,107.79-28.21,8.81-2.4,34.71-13.49,40.71-13.4,6.78.1,5.11,9.98,4.38,14.49-6.42,39.32-46.32,100.2-79.7,122.29-59.09,39.12-118.49,20.29-181.93,32.07-29.13,5.41-52.25,22.5-75.89,39.09,50.81-6.96,97.12.18,145.99,13.03,41.72,10.97,84.3,28.59,125.57,38.43,7.35,1.75,17.53,5.08,24.89,4.18,7.82-.95,26.15-10.32,33.58-14.58,43.01-24.67,59.67-73.38,95.93-106.07,33.13-29.86,95.73-56.37,138.48-69.52,8.62-2.65,33.57-12.69,33.45,3.25-10.95,40.6-8.16,85.28-29.57,122.63-35.93,62.69-140.74,77.72-206.34,78.68,3.39,5.06,13.69,6.11,19.59,7.39,50.2,10.87,111.99,17.87,162.48,7.66,95-19.21,239.99-144.65,257.39-242.61,2.65-14.91,5.72-25.87-4.42-38.5-14.87-18.52-45.93-25.68-66.05-11.97-17.04,11.61-3.5,18.66-2.93,33.11.83,20.85-14.23,38.07-35.37,38.75-44.05,1.41-49.73-66.89-3.13-71.39,6.41-.62,13.4,2.23,17,1.26,2.53-.68,13.3-11.54,18.03-14.14,24.23-13.33,57.49-10.3,77.42,9.44l3.93-2c-8.24-42.77-29.55-91.98-64.98-118.98-32.88-25.05-79.75,17.08-97.41,44.49-3.87,6.01-13.84,25.21-14.74,31.4-.78,5.34,7.16,20.16,7.17,29.06.06,41.44-58.12,51.7-72.96,14.99-8.74-21.61,5.02-49.53,28.46-53.5,7.15-1.21,21.87,2.32,24.55.61,2.41-1.54,19.95-34.36,25.15-40.93,17.4-22,39.55-35.8,64.79-47.17-63.38-38.4-143.73-15.66-191.82,36.27,3.28,6.87,9.97,10.94,13.49,18.09,17.78,36.12-23.17,72.58-56.62,48.62-22.75-16.29-19.32-55.29,6.51-65.46,7.06-2.78,14.22-1.37,19.59-4.41,3.77-2.13,9.35-12.02,13.82-16.18,45.45-42.24,101.04-59.78,163.05-49.95-10.6-44.38-56.39-68.25-100.01-61.01-5.06,2.53-3.34,9.95-5.5,14.5-17.45,36.73-75.81,26.76-76.64-16.49-.88-46.16,63.5-56.42,76.37-13.21,48.27-3.86,91.18,13.18,113.54,57.47,3.07,6.09,4.85,17.67,8.86,22.15,5.28,5.89,41.09,22.81,52.05,30.94,31.09,23.06,54.14,55.91,68.33,91.65,3.6-1.64,6.38-22.04,6.99-27.01,5.29-43.55-.53-90.6-18.29-130.65-48.7,8.27-69.72-57.11-24.42-76.06,34.45-14.41,65.24,21.03,50.22,54.22-3.06,6.77-11.54,12.3-11.62,18.44-.1,8.4,11.28,38.33,13.55,50.67,5.05,27.47,7.64,57.51,4.35,85.18-1.99,16.77-10.4,37.51-11.77,52.22-1.27,13.61,2.73,32.48,2.09,48.09-.47,11.62-3.37,25.1-4.06,36.92,25.94-28.23,52.64-55.78,87.01-73.97,1.6-14.98.35-28.65,11.89-40.11,30.84-30.61,84.28,5.81,60.71,48.72-8.53,15.53-27.31,20.41-44.18,16.91-9.07-1.88-18.45-15.08-25.94-13.2-5.21,1.3-41.47,30.93-47.54,36.63-14.59,13.69-30.32,33.32-42.8,49.2-23.12,29.43-43.68,61.21-65.17,91.81,30.85-9.65,62.7-18.39,95.02-21.96,41.43-4.57,80.77,8.12,121.41-4.59,85.48-26.74,122.95-100.7,188.62-153.38,21.86-17.54,67.83-49.93,93.5-58.5,15.09-5.04,11.94,7.65,11.52,19.53-1.8,51.92-9.21,106.71-41.29,148.7-39.16,51.26-78.64,72.06-142.05,81.96-5.52.86-15.78-1.61-18.73,4.23,57.95,12.05,116.05,4.02,171.98-12.98,75.49-22.95,116.58-65.6,132.64-143.36,5.77-27.95,8.13-56.96,7.17-85.44-56.86-9.95-91.25-75.91-82.91-130.29,2.7-17.6,13.25-38.63,34.03-37.99,7.71.24,13.38,6.19,20.92,5.96,12.46-38.23,57.54-36.38,71.27.08,22.46-12.9,48.05-5.96,52.4,21.53,7.49,47.45-24.49,115.72-68.13,136.89-4.38,2.12-12.17,1.46-14.06,6.08-1.03,33.51-3.72,66.51-9.31,99.55,29.43-35.32,59.17-67.68,98.15-92.83,7.81-5.04,59.52-35.16,64.04-34.19l5.46,4.35c-2.18,73.37-25.4,164.21-105.66,185.69-41.16,11.02-91.16-4.03-118.01,36.96,51.28-11.42,103.33-11.62,154,3.02,19.85,5.74,38.02,15.79,57.99,21.01,1.33-18.04,17.35-37.87,32.6-46.43,26.19-14.7,57.41-10.6,86.16-13.84,11.51-1.29,57.65-11.98,63.41-10.88,11.14,2.12,4.58,39.62,2.5,48.79-11.18,49.14-43.06,63.18-91.4,58.1-16.12-1.69-31.58-9.98-46.72-13.29-2.01-.44-7.02-2.02-6.51,1.51,41.11,19.98,85.34,47.44,133.06,44.1,41.47-2.9,73.94-32.09,108.93-50.1-9.39-17.65-17.76-31.16-15.75-52.73,6.56-70.34,109.91-134.68,159.77-178.21,15.53-13.56,30.27-28.56,44.86-43.13,11.6-6.88,13.35,5.96,16.09,14.12,9.48,28.15,12.17,67.05,6.04,96.01-17.4,82.17-98.08,80.12-151.05,128.95-2.14,1.98-14.13,12.82-11.96,15.02,40.19-7.9,77.31-3.11,116.42,6.58,56.03,13.88,85.33,25.69,146.65,21.51,9.22-.63,23.24-.44,24.74-11.19,5.09-36.52-20.55-78.68-22.14-115.56-1.39-4.04-11.73-5.04-16.36-7.64-37.95-21.36-17.72-78.29,23.74-73.74,33.32,3.66,45.71,51.32,18.82,70.92-5.34,3.89-14.36,4.07-14.05,12.09,5.1,32.42,19.59,63.72,24.16,96.07.9,6.36-2.46,14.41,3.01,18.93,46.28-25.16,89.49-70.13,107.98-119.98,3.46-9.33,13.56-35.1,7.02-42.96-28.49-19.79-59.03-41.86-81.93-68.06-5.14-5.88-21.9-31.28-24.91-33.09-9.08-5.45-22.41,2.15-37.2-10.8-27.56-24.13-9.46-71.67,28.78-68.94,27.58,1.97,44.93,34,32.41,58-4.21,8.07-13.47,10.25-10.09,19.77,1.04,2.94,16.64,22.31,19.94,26.13,22,25.46,51.34,45.69,78.03,65.94,2.99-1.93,2.72-3.86,3.07-6.89,5.1-43.17-3.09-87.65-12.44-129.71-2.47-4.73-12.28-4.35-17.59-6.41-40.97-15.82-32.83-80.23,12.96-81.11,47.05-.9,56.87,61.6,17.29,81.34,17.03,60.39,24.96,126.52,3.7,186.8,3.89,1.02,3.87-1.53,5.65-3.33,6.3-6.4,12.21-15.4,18.3-21.7,21.16-21.86,46.15-42.78,71.67-59.33-3.98-20.97-.44-44.14,20.58-54.43,51.91-25.41,84.94,54.25,33.77,73.77-27.58,10.53-36.16-8.04-46.85-6.98-4.28.42-32.82,21.73-38.06,26.08-44.87,37.26-80.54,89.72-117.05,134.95.69,2.11,4.82.92,6.73.73,12.85-1.25,59.1-9.28,67.17-16.83,6.19-5.79,4.83-11.87,16.75-17.26,58.22-26.29,70.46,82.57,3.29,65.4-18.35-4.69-20.52-25.42-29.36-26.68-26.75,3.31-62.74,5.35-86.69,18.52-10.59,5.82-21.38,17.81-33.28,24.72-10.21,5.93-21.38,10.75-32.61,14.41l2.03,2.94c77.75,25.78,149.91,68.93,234.94,63.02,5.26-.37,25.73-2.88,28.94-5.06,3.94-2.68,4.46-11.8,5.44-16.56,18.96-92.72-50.62-151.96,44.85-225.15,12.51-9.59,26.69-18.39,41.07-24.93,8.12-3.69,36.8-18.95,36.82-3.37-4.19,22.24-11.27,47.47-12.18,70.01-2.39,59.47,17.17,90.98-16.31,149.7-3.15,5.53-11.93,14.75-13.6,18.42-.48,1.06-.38,3.39.97,2.96,63.11-35.04,90.49-114.54,106.87-181.13,5.12-20.84,10.47-43.96,11.26-64.95-41.21-16.7-60.18-65.8-52.2-108,4.24-22.44,23.64-34.55,44.94-24,7.13-23.34,44.69-25.57,55.9-4.67,1.85,3.44,2.09,10.42,4.12,11.88,5.18,3.7,16-3.47,27.2,6.8,30.92,28.34-8.43,96.62-38.43,113.73-9.24,5.27-18.35,4.71-25.61,10.39-8.34,42.06-16.89,84.49-30.97,125.03-1.99,5.74-17.42,39.2-16.05,40.93,20.17-14.95,41.83-29.45,67.19-33.79,22.69-3.88,64.52-.42,87.61,3.97,29.48,5.6.03,24.15-8.76,34.88-29.97,36.6-38.81,78.53-97.04,74.9-28.78-1.8-56.85-21.31-85.8-17.73-14.94,1.85-33.81,21.09-48.63,29.37-61.16,34.16-141.71,37.66-209.01,21.82-53.74-12.65-102.61-43.26-155.16-56.84-31.81-8.22-62.76-6.26-95.18-12.82-34.56-6.99-68.17-21.09-102.84-27.16-48.42-8.48-103.65-2.3-142.41,29.39,29.93-4.35,59.33-1.31,88.43,6.59,66.28,18,90.37,67.41,149.63,94.37,8.55,3.89,55.4,18.43,57.01,21.01,3.99,6.42-3.76,12.01-8.03,16.1-29.24,28.05-77.83,43.54-118.02,39.92-77.73-7-114.55-109.91-183.66-142.34-6.78-3.18-23.52-9.76-30.43-9.69-5.37.06-23.1,8.94-30.96,11.04-52.99,14.16-98.81-7.38-144.97-31.01l-3,1.01c38.64,37.07,54.8,90.95,85.16,132.84,7.11,9.81,19.52,15.58,16.96,30.95-1.44,5.22-79.32,7.9-89.11,7.2-95.83-6.86-89.73-70.52-116.67-141.33-30.53-80.25-57.97-106.89-146.72-88.02-58.24,12.38-107.84,38.48-168.88,45.12-88.73,9.66-139.02-14.8-219.9-35.6-57.38-14.76-116.23-9.69-171.88,9.82-41.27,14.47-72.11,43.01-106.97,68.01,55.83-13,107.25,2.3,161.58,11.44,22.67,3.81,46.54,5.24,68.86,9.14,16.57,2.9,23.32,5.24,10.61,21.49-12.54,16.03-49.38,48.87-66.1,61.9-76.62,59.76-178.49-67.82-259.79-57.78-7.94.98-18.02,5.76-26.75,7.24-136.9,23.15-280.27-39.03-409.98-72.84-94.44-24.62-141.62-12.9-232.79,8.07-178.6,41.09-342.7-52.34-520.62-42.62-66.12,3.61-132.83,28.14-193.73,52.27l-21.28,11.69c20.89-1.83,42.07-.93,62.97-2,93.5-4.78,176.23-19.32,260.85,33.19,15.66,9.72,68.09,49.41,77.03,62.96,11.63,17.62-21.45,9.53-29.92,9.77-107.12,3-177.17,72.97-284.28,14.45-42.38-23.16-116.76-98.93-163.45-94.12-17.15,1.77-37.71,9.18-56.46,11.52-48.61,6.07-106.28,5.45-152.11-13.38-127.57-52.43-52.48-228.01,72.96-192.96,70.55,19.71,67.28,120.85-8.72,122.67-19.51.47-59.04-11.51-47.84-38.03,9.72-23,56.94,1.28,71.65-18.55,17.72-23.9-11.63-52.32-35.92-55.27-100.76-12.21-152.41,131.31-37.3,171.3,86.93,30.2,198.72,2.84,278.68-36.79-24.16-69.17-8.02-141.96,17.79-207.99.75-8.29-6.99-11.33-10.35-19.35-16.98-40.58,34.1-73.86,63.68-44.68,23.22,22.91,11.03,63.61-20.76,68.81-6.07.99-17-1.92-19.63.24-25.57,60.97-40.27,131.79-18.87,196.24,10.46-6.9,26.57-11.2,36.48-17.97,1.84-1.26,2.6-4.1,4.78-5.65,23.92-17,47.15-35.43,66.3-57.78-5.2-72.54-9-145.14,14.93-215.09,2.59-7.56,12.04-23.65,12.55-29.3.45-4.99-7.34-17.99-7.12-27.12.8-33.5,39.99-51.33,66.1-30.12,28.15,22.87,12.05,71.17-25.04,71.18-9.11,0-16.3-5.25-24.93-6.1-1.04,5.99-4.01,11.3-6.1,16.92-24.83,66.7-22.69,137.24-17.94,207.04,29.55-26.1,54.91-56.46,81.93-85.05,6.92-7.32,40.93-38.09,43.01-42.98,3.19-7.51-1.72-29.73-.93-40.94,1.36-19.1,9.12-42.88,18.36-59.64,4.85-8.79,28.17-36.67,29.2-40.92,1.74-7.13-2.65-11.35-3.42-17.63-4.44-35.98,28.38-62.79,61.63-45.64,38.22,19.7,20.37,84.93-24.57,80.6-4.97-.48-23.35-8.15-25.24-6.94-15.69,19.18-30.57,40.54-37.42,64.71-1.04,3.68-4.57,16.88-4.57,19.43v33ZM1996.88,39.82c0-15.31-12.41-27.72-27.72-27.72s-27.72,12.41-27.72,27.72,12.41,27.72,27.72,27.72,27.72-12.41,27.72-27.72ZM1738.06,47.39c0-14.98-12.14-27.12-27.12-27.12s-27.12,12.14-27.12,27.12,12.14,27.12,27.12,27.12,27.12-12.14,27.12-27.12ZM2569.47,145.03c-5.84-6.01,13.4-45.8,13.9-53.09,1.54-22.36-25.12-39.94-42-21.98-16.48,17.55-.96,34.16.14,54,.39,7.11-1.7,27.16-9.69,13.7-3.74-6.3-3.57-23.96-6.83-33.17-7.99-22.6-31.15-29.05-41.35-4.25-19.04,46.31,29.06,138.45,85.86,123.86,32.95-8.46,63.89-70.25,66.01-101.99.79-11.77.3-32.27-12.58-37.55-17.23-7.06-28.09,11.85-33.84,25.12-1.6,3.7-11.38,43.83-19.63,35.35ZM1397.27,160.83c-17.73,3.45-7.23-23.48-3.85-32.83,3.03-8.4,10.29-17.28,10.12-25.85-.45-23.47-27.7-48.51-47.12-25.15-11.69,14.06-4.24,14.8-1.89,27.97,1.5,8.41,7.5,49.84-2.09,52.06-3.39.79-4.03-2.7-4.96-5.01-4.61-11.58-4.64-36.99-8.61-51.39-8.86-32.1-39.46-41.13-48.51-3.69-10.62,43.96,7.67,110.06,40.11,142.08,52.92,52.25,104.76-30.14,119.91-76.07,5.5-16.68,16.61-66.64-6.84-73.08-23.62-6.48-42.12,54.97-46.26,70.96ZM3446.91,95.51c-42.48,7.85-20.22,78.31,22.64,54.63,29.73-16.43,12.39-61.1-22.64-54.63ZM732.72,131.48c0-17.6-14.27-31.87-31.87-31.87s-31.87,14.27-31.87,31.87,14.27,31.87,31.87,31.87,31.87-14.27,31.87-31.87ZM569.76,169.09c0-16.38-13.28-29.65-29.65-29.65s-29.65,13.28-29.65,29.65,13.28,29.65,29.65,29.65,29.65-13.28,29.65-29.65ZM3370.84,176.24c0-15.08-12.22-27.3-27.3-27.3s-27.3,12.22-27.3,27.3,12.22,27.3,27.3,27.3,27.3-12.22,27.3-27.3ZM3839.47,205.03c-2.59-11.71,6.45-21.68,6.08-32.93-.6-17.92-18.15-28.89-32.17-16.14-11.56,10.51-2.94,20.21-1.94,32.1.75,8.85-.49,18.11.03,26.99l-9.79-.23c-3.01-10.85-2.23-23.04-5.13-33.86-8.66-32.34-29.28-12.69-32.57,11.6-8.86,65.56,62.49,124.4,107.09,47.09,7.62-13.2,19.76-53.62,2.37-61.57-21.84-9.98-17.47,27.18-33.96,26.95ZM902.93,196.36c0-13.7-11.11-24.81-24.81-24.81s-24.81,11.11-24.81,24.81,11.11,24.81,24.81,24.81,24.81-11.11,24.81-24.81ZM1670.99,189.41c-31.31,3.53-32.76,54.77,3.39,53.72,34.08-.99,30.69-57.56-3.39-53.72ZM1155.46,239.04v-29l-4-2.02c-37.82,39.79-73.38,84.14-90.92,137.1-26.53,80.06-22.68,114.05-102.47,161.53-3.31,1.97-22.24,10.2-22.62,11.41-1.43,4.47,1.88,2.55,4.13,2.12,12.28-2.33,67.19-18.52,71.45-28.57,1.85-4.37,2.05-26.38,7.43-26.53,5.97,3.12,1.42,18.16,3.01,19.95,16.57-5.96,24.25-12.26,21.82-30.84-.52-3.98-8.05-19.63-.8-21.14,8.31-1.73,7.75,25.76,11.96,25.94l22.11-26.11c-2.41-9.85-20.87-33.82-19.1-42.81.28-1.43,3.52-4.33,4.96-1l20.05,35.92c2.55-.05,18.9-31.76,19.14-37,.61-13.36-23.62-35.02-22.12-50.96,11.37,8.12,16.41,26.19,25.07,35.91,1.81,2.04,2.05,2.97,3.94.12,1.62-2.44,6.88-19.69,6.81-22.81-.36-17.32-20.42-36.05-15.82-55.22l21.96,38,10.06-42.45c8.13-3.6,6.78-12.38,11.03-17.48,4.88-5.86,10.37-4.26,8.55,4.49-1.41,6.78-19.08,41.02-15.6,45.44,14.2-5.53,21.38-25.43,35.97-27.99,5.47,5.43-32.85,40.93-40.11,43.4l-11.87,36.58c10.23,1.36,41.1-34.8,45.98-29.98-.47,9.95-13.22,19.86-21.05,25.93-6.97,5.4-27.19,14.95-29.89,18.11-4.26,4.99-8.36,19.84-13.05,25.93l48.98-20c1.86.08,1.26,3.6.79,4.79-4.7,11.86-45.84,21.5-55.69,28.31-2.21,1.53-19.09,23.63-20.05,25.96-1.11,2.7-.02,3.16,2.62,2.64,5.55-1.09,39.21-8.3,40.97-7.16.94.6-.36,4.16,1.38,3.48,30.33-32.21,54.21-76.03,56.99-121.02,1.6-25.94-7.59-71.71-14.59-97.38-.56-2.05-.5-6.06-3.36-5.58l-4.03,9.99ZM3635.25,248.47c0-14.98-12.15-27.13-27.13-27.13s-27.13,12.15-27.13,27.13,12.15,27.13,27.13,27.13,27.13-12.15,27.13-27.13ZM2647.46,321.04h38c-.56,8.26-18.07,9.25-25.03,9.97-8.32.86-16.73-1.2-25.03.97-11.01,2.88-21.08,19.06-31.93,23.1l.99,3.97c7.26,2.66,44.94-5.93,44.95,2.99-7.71,9.01-23.82,7.76-35.05,7.09-17.56-1.04-26.9-7.99-42.87,6.91-.09,3.34,20.22,5.36,23.98,7.98,2.93,2.03.68,4.6-1.11,5-13.77,3.13-37.01-17.06-46.89,7.06-.54,6.1,2.16.96,2.97.96h36c13.15,0,32.74-5.4,44.75-11.25,55.97-27.3,73.86-95.4,78.24-152.74-2.73-2.88-45.39,24.15-51.03,27.95-16.51,11.12-75.48,57.42-78.87,75.13-1.16,6.08.22,14.26-2.08,20.9,36.69-4.27,28.51-44.44,49.02-65.98l4.98,3.03c.4,2.01-12.25,26.2-13.62,32.36-.56,2.52-1.25,6.17,2.58,4.58,1.37-.57,21.19-18.56,21.92-20.09,5.33-11.15,2.77-37.15,19.09-41.88l-5.98,25.98c4.71,4.83,21.44-27.91,29.98-23.98,6.47,6.36-33.64,43.88-37.99,49.99ZM2151.61,263.09c0-15.1-12.24-27.34-27.34-27.34s-27.34,12.24-27.34,27.34,12.24,27.34,27.34,27.34,27.34-12.24,27.34-27.34ZM3177.45,235.05l-41.97,35.12c9.31,11.82-5.87,24.47-8,36.87,9.99-.96,35-38.21,38.99-37.95,3.1.2,3.07,5.18,2.12,8.05-3.07,9.23-14.54,19.11-19.13,27.87,5.62,4.4,31.66-20.24,37.01-23.97,2.99,13.59-16.45,25.46-26.97,31.03-11.55,6.11-24.02,7.96-34.68,13.32-10.87,5.47-23.84,17.67-33.36,25.62,16.7.89,33.4-1.23,49.56-5.42,10.12-2.62,21.83-9.51,30.35-11.7,3.56-.92,3.66-.9,6.05,2.14-15.08,14.58-38.36,21.44-58.99,22.97-11.28.84-29.28-2.13-39.09.91-5.88,1.82-37.53,31.59-33.87,35.11,24.82-5.52,50.38-10.05,75.88-9.8l1.1,5.79c67.28-22.51,83.12-88.47,67-151.99-4.69-.98-3.21.63-4.47,2.58-.86,1.33-9.21,22.21-13.51,17.41l5.98-23.98ZM1768.87,245.46c-27.54,6.3-18.55,57.25,13.09,51.16,30.9-5.94,27.72-60.5-13.09-51.16ZM2427.45,245.05c-2.44-2.49-36.86,17.97-41.82,21.16-44.4,28.48-85.06,66.99-118.16,107.84l5.94,1.03c-4.44,19.82-15.83,38.31-17.57,59.46l2.68,4.48c24.46-8.95,45.8-17.03,53.97-43.95,2.86-9.42,10.49-62.78,15.99-64.03l4.59,4.48-13.6,65.5c3.46.9,4-1.43,6-2.98,32.06-24.74,23.76-44.86,28-80,1-8.32,2.94-16.7,4.03-25.01l5.94-.02c2.78,2.64-2.92,36.16-2.01,43.03.36,2.74,1.12,5.89,3.99,2.98,5.26-16.9,16.77-39.24,29.22-51.8,2.08-2.1,2.87-5.09,6.8-4.18l-30.01,66.97c1.6,3.14,3.57.01,5.11-.89,5.66-3.32,18.19-15,21.96-16.05,4.11-1.15,3.31,2.17,2.61,4.61-3.5,12.17-25.29,20.99-34.69,29.32-16.93,15.01-27.34,38.96-46.96,52.02l41.99-7.99,1,6c18.65-19.01,37.22-39.54,47.37-64.63,13.53-33.43,12.77-71.95,17.63-107.35ZM431.32,284.88c0-15.41-12.49-27.9-27.9-27.9s-27.9,12.49-27.9,27.9,12.49,27.9,27.9,27.9,27.9-12.49,27.9-27.9ZM886.26,300.13c0-15.22-12.34-27.56-27.56-27.56s-27.56,12.34-27.56,27.56,12.34,27.56,27.56,27.56,27.56-12.34,27.56-27.56ZM3114.84,320.43c2.73-3.91,3.24-17.49,5.17-23.84,1.09-3.57,8.72-16.01,7.43-17.55-22.61,11.09-27.91,25.45-27.97,49.99,1.38,1.56,14.37-7.18,15.37-8.6ZM3308.98,293.5c-38.76,2.12-32.03,64.68,8.12,54.16,31.45-8.24,19.73-55.68-8.12-54.16ZM1864.93,303.52c-21.12,3.78-21.73,37.24-1.54,42.57,39.77,10.49,44.05-50.18,1.54-42.57ZM3649.46,485.04v-29c0-2.9-31.41-39.04-25.99-50.99,5.31-5.77,15.44,31.89,23.98,29.98-2.04-8.68,2.24-21.03,1.58-28.53-.94-10.65-17.74-29.95-5.6-39.45,2.68,2.08,3.48,23.85,10,25.99-1.96-5.13,17.08-43.88,22.01-37.99l-11,41.98c9.37-8.1,15.69-21.5,23.98-30.02,2.09-2.15,3.49-4.68,7.02-3.96,8.14,9.32-30.49,43.08-34.9,50.08-4.71,7.49-5.13,28.41-.09,35.87,3.11-.06,21.27-26.67,25.31-30.65,2.66-2.63,2.67-4.31,7.68-3.3,1.99,1.85-10.34,19.86-12.33,22.65-3.59,5.03-20.53,22.33-21.26,24.75-2.26,7.48,2.46,15.1,1.62,22.58l31.01-27.98c4.72-1,3.33,4.02,2.49,6.49-4.12,12.09-24.82,25.65-34.47,33.54l-7.07,28.93c6.23,1.95,12.95-6.49,19.16-7.07l3.86,4.09c3.83-1.42,17.77-26.74,19.97-32.03,18.97-45.47,4.18-86.45,6.95-133.05,1.06-17.73,4.92-37.97,10.08-54.9-29.51,6.36-68.62,33.85-86.87,58.11-24.44,32.52-16.69,62.78-11.13,99.88.47.61,4.05-1.7,6.06-.93,2.26.86,25.69,27.97,27.93,24.92ZM3093.45,307.05c-1.37-1.5-11.03,6.56-12.94,8.04-18.8,14.57-29.16,26.12-27.03,51.95,7.42-7.4,27.69-18.2,32.88-26.1,4.57-6.96,3.68-25.06,7.09-33.89ZM1499.45,309.05c-61.27,17.07-125.51,19.6-174.94,64.04-3.34,3-39.24,40.17-37.05,41.93,6.25-1.18,19.52-5.07,23.9-9.08,4.88-4.47,10.72-18.17,17.31-24.69,2.04-2.01,21.36-17.32,16.49-5.51-1.5,3.64-20.37,22.1-17.69,25.3,6.27-4,20.7-3.56,25.91-7.07,2.52-1.7,14.99-25.24,19.23-30.77,6.38-8.33,13.72-15.64,21.89-22.13l4.94,3.01c1.45,5.5-14.63,17.83-18.83,23.13-1.76,2.21-14.17,21.03-13.17,21.81l36.58-9.89c6.54-10.56,26.35-46.66,38.42-48.12,4.22-.51,3.71,2.09,2.67,4.7-1.69,4.24-22.73,26.24-19.66,29.32,18.32-4.2,29.52-23.71,45.98-29.98,6.37,6.55-34.14,39.39-39.95,42.99l23.97,5.01v5.99c-21.24,1.66-38.95-10.45-57.97,5.01-.04,5.68,31.05,8.08,34.73,9.28,3.36,1.1,2.62,6.09,4.21,5.71,7.99-1.91,30.68-30.26,35.85-38.16,4.63-7.06,31.01-58.11,27.16-61.82ZM3025.43,403.04c.16-9.74,14.39-17.18,17.14-25.88,2.44-7.74.75-21.37,2.86-30.12-17.37,10.76-30.64,32.12-24.03,53.09.88,2.8-1.21,3.52,4.03,2.91ZM2551.48,375.04c10-5.29,18.76-8.65,15.96-22-4.04.83-17.45,20.38-15.96,22ZM785.68,397.86c0-16.06-13.02-29.09-29.09-29.09s-29.09,13.02-29.09,29.09,13.02,29.09,29.09,29.09,29.09-13.02,29.09-29.09ZM1761.45,373.05c-60.9,18.33-123.16,39.72-165.94,89.04-14.79,17.05-25.22,37.27-39.26,54.74-2.29,2.85-19.15,17.91-16.79,20.19l31.09-11.89,11.89-30.07c7.15,6.43-.37,16.02,1.01,23.95,1.72,1.78,28.48-11.26,30.92-14.06,10.17-11.66,5.26-54.63,18.1-59.91,4.04-1.66,2.89,2.74,3.02,5,.84,14.86-8.13,29.88-7.06,44.97l39.11-32.89c4.72-7.44,5.13-31.84,11.84-36.16,10.75-6.93.04,18.19,3.05,21.05,6.34-4.84,35.32-38.06,40.02-37.94,2.97.07,3.12,4.86,1.94,7.89-3.23,8.29-14.91,13.13-16.94,22.05,2.4,2.2,24.34-13.38,25.98-1.02-1.62,7.83-34.52,10.08-41.84,14.18-7.74,4.34-19.09,20.21-26.15,26.83,17.6,3.44,39.49-7.53,55.08-8.04,2.84-.09,9.06-.52,7.94,4.06-2.96,7.34-28.72,12.56-36.57,13.45-11.31,1.27-30.09-1.58-39.02.98-1.65.47-26.64,19.07-27.42,20.59-.83,4.59,2.02,2.71,4.98,2.95,6.63.54,13.85,1.86,19.93,2.11,13.87.57,32.88-3.86,44.24-2.25,4.03.57,2.52,4.46,3.8,4.18,5.64-1.2,26.69-21.53,31.04-27.01,25.55-32.14,23.46-78.34,31.98-116.99ZM2159.46,451.04h43c4.54-3.97,12.86-29.88,18-29.96,9.49-.15-6.1,26.94-4.99,27.95,6.55-.07,24.76-1.54,28.98-6,4.42-4.68,5.61-30.34,8.45-39.55,2.66-8.61,8.55-15.66,10.54-24.44-19.3,18.74-39.2,36.73-62.64,50.34-13.53,7.86-29.29,12.53-41.34,21.66ZM3003.44,419.04c1.77,10.09-6.25,20.23,3.02,27.96,12.65-17.34,10.91-33.75,8.58-53.67-.31-2.63.64-4.41-2.61-6.28-3.82-.71-4.69.53-6.73,3.24-3.26,4.33-13.7,25.46-13.95,30.15l7.68,6.61,4.01-8.01ZM3113.45,393.06l-76,10.97c-3.23,5.3-15.45,26.2-11.97,31.01,18.62-9.68,33.53-9.88,7.78,6.8-6.99,4.53-14.13,1.63-11.79,15.19l39.33-31.65,52.65-32.32ZM1431.46,411.06c-16.68,4.41-40.18-12.85-54.54-11.59-8.08.71-20.24,7.89-29.45,7.58-6.08,6.61,29.39,10.75,23.99,19.98-13.28,3.39-29.97-14.14-40.76-13.88-15.84.39-55.04,18.95-67.24,29.87l48.98-4.12c40.61,4.33,86.55-1.2,119.02-27.84ZM2885.45,409.05l-33.73,6.25c.23,11.32-11.9,16.65-18.25,24.75,9.11,6.68,44.07-16.79,47.98-13,.24,12.2-16.85,14-23.98,21,1.94,1.72,17.42,6.42,13.98,10.98-4.29,5.68-26.07-7.34-31.18-7.96-8-.97-19.71,4.23-28.8,1.98-3.18,8.2,33.58,19.26,27.98,23.98-30.48,3.96-41.72-33.72-73.99-19.97,3.75,8,16.44,7.73,15.99,17.96-12.03,2.58-26.04-17.85-36.49-11.59-2.55,1.53-4.2,2.07-3.49,5.59,15.97,1.88,31.07,10.87,45.99,15.02,63.18,17.6,102.52-7.42,98-75ZM3549.13,439.2c0-12.15-9.85-22-22-22s-22,9.85-22,22,9.85,22,22,22,22-9.85,22-22ZM2839.45,419.05c-13.51.17-23.42-2.5-34.98,6-2.11,1.55-16.93,15.79-16.97,16.99-.11,3,4.23,2.13,5.95,2.06,5.94-.26,20.45-.23,24.6-1.47,2.72-.81,23.62-21.61,21.4-23.58ZM2355.46,421.06c-15.15,7.03-35.68,3.26-49.66,7.32-5.16,1.5-29.09,14.66-35.73,18.27-1.86,1.01-4.4,1.9-4.61,4.37l12.02,2.04-2.02,5.96c28.56-6.21,59.81-15.72,80-37.96ZM2795.46,421.06c-16.89-1.7-31.79,2.4-46.75,9.77l-3.23,20.21c7.3-4.79,23.75-3.39,29.91-7.07,2.34-1.4,6.08-9.78,8.99-13.01,3.3-3.65,9.1-5.06,11.07-9.91ZM2997.44,461.04c.5-3.37-.56-6.4-1.39-9.59-.99-3.78-3.1-12.41-6.57-14.4-.4,7.95.6,19.09,7.96,23.99ZM3919.45,445.05c-30.74-.67-52.36-10.46-84.01-3.03-19.6,4.6-59.97,28.26-71.01,44.99-.92,1.4-2.22,3.42.02,4.02,5.32-5.12,24.77-7.39,28.52-10.48,8.39-6.92,10.42-20.66,28.44-26.56,2.16-.71,10.39-2.66,8.05,2.04-7.62,6.74-18.31,10.73-21.99,21,27.68,5.89,41.75-17.82,63.99-27.97.51,3.69-.03,5.91-1.89,9.09-2.87,4.92-10.81,8.36-14.09,12.88l35.98-7.97c2.88,2.44-11.82,15.48-15.99,14.06l1.99,7.92-39.98.02c-2.05,8.89,27.65,19.14,23.98,23.97-7.84,10.31-35.4-21.86-42.87-22.08-7.49-.23-19.24,5.16-27.11,6.12-2.81,7.79,29.39,19.22,23.98,23.97-13.16,4.73-29.65-18.04-37.27-19.57-3.11-.62-22.63,8.58-22.68,10.58l55.51,18.45c24.06,5.09,42.21,2.84,60.42-14.47l48.01-66.97ZM173.44,445.04c-10.71,13.69-23.01,21.1-40.91,22.07-10.23.55-45.57-9.55-38.81,10.6,1.31,3.9,18.23,10.5,22.91,11.15,29.41,4.1,59.37-11.07,56.8-43.82ZM2725.46,459.02c6.68.28,8.85-6.73,7.98-11.98-4.77,2.16-5.53,8.06-7.98,11.98ZM2199.46,465.04h55c1.73,0,16.42-2.97,16.99-5.98-8.24,2.1-15.78-3.85-23.04-4.11s-29.96,5.22-39.36,6.68c-2.37.37-9.72.48-9.58,3.41ZM1113.46,459.06l-49.53,7.3-34.47,30.66,26.77-1.86,4.21,7.86c20.36-11.15,38.39-25.98,53.02-43.96ZM2681.46,514.04v29c-3.29.18-4.62.68-6.96-2.08-4.97-5.88,2.83-34.76-3.3-46.67-1.7-3.3-13.34-14.25-16.79-15.22-6.3-1.72.1,12.98-5.93,9.95-4.75-2.39-1.55-12.42-6.1-17.91-2.08-2.51-11.51-7.67-14.92-5.08,19.66,20.84,32.99,50.37,42.89,77.11,21.71,58.64,17.36,121.45,96.13,127.87,6.32.52,66.87,1.19,66.99-2.97-4.66-3.23-24-9.58-25.97-14.05-5.23-11.85,19.67,2.18,21.37,2.64,10.96,2.97-3.51-13.13-5.44-16.57-31.25-55.71-55.14-112.14-111.15-148.89-3.78-1.39-1.58,3.96-5.74,4.1-4.4.15-20.31-4.97-21.08-4.22l14.48,23.49c9.9,4.74,45.13,12.13,49.25,21.76.94,2.2,1.28,5.82-2.52,4.54l-35.22-11.79c-.94.93,9.41,22.14,11.07,23.91,4.39,4.67,29.87,9.72,38.3,13.7,10.27,4.86,17.92,13.36.1,9.89-8.7-1.69-18-6.73-26.46-9.54-2.06,5.39,11.58,24.37,15.12,26.88,3.35,2.38,10.06,3.13,14.57,5.43,4.94,2.51,30.1,14.1,31.23,16.77.37.86.79,4.96-.95,4.96l-24.99-7.99,17.95,22.99c-4.48,8.79-15.85-5.3-17.94-3-.82,8.29,4.67,15.43,5.85,23.15.45,2.96,1.35,5.66-2.83,4.82-13.1-8.46-9.82-26.11-14.54-37.47-1.79-4.33-15.91-21.45-19.92-25.95-1.18-1.33.12-3.86-4.56-2.55-2.12,19.77,4.32,38.61,5.98,57.98-2.8.64-3.29-.41-5.05-1.93-15.51-13.47-5.67-50.4-9.4-68.6-1.69-8.27-11.21-18.84-13.59-27.44l-3.97.99c1.49,18.05-2.8,35.45-6.03,52.99h-5.95c-2.32-33.92,15.76-66.28-9.06-95.95-2.3-2.75-4.48-.96-4.95.95ZM2699.46,485.02c-10.73-9.51-26.49-15.18-40-19.96,9.45,15.26,22.75,19.03,40,19.96ZM3641.43,527.03l7.73-28.54-29.68-27.45c3.6,28.12,2.95,56.09-2,84l17.64-19.33c-4.5-9.09-10.93-17.79-9.65-28.66,4.34-5.11,10.9,16.3,11.53,17.44,1.26,2.29-.11,3.39,4.43,2.54ZM1047.46,507.06c-9.32,2.39-22.91-2.74-30.81-2-3.54.33-12.77,5.5-16.8,7.47-1.11.54-8.11.67-4.39,4.49,6.18,6.34,45.9.43,51.99-9.95ZM977.46,521.06c1.09,4.2,5.44,4.43,8.97,3.96l2.98-2.99-3-3.01-8.95,2.03ZM1683.45,523.06c-14.26-.5-28.7.62-42.96-.05-7.43-.35-19.06-4.58-25.84-3.96-3.43.32-24.21,9.86-21.18,13.96,4.97,2.51,13.2,3.28,17.53,5.52,3.56,1.84,3.93,5.49,4.88,6.06,4.56,2.73,39.33-8.9,46.62-11.52l20.95-10.02ZM3029.46,519.04h-44c4.51,6.29,16.19,4.77,23.04,7.7l20.96-7.7ZM3259.45,635.06c-38.07-9.91-72.42-29.68-102.93-54.08-9.6-7.68-19.38-19.42-29.23-26.77-24.2-18.06-57.72-31.45-87.83-33.15l3.99,5.96-17.99,4.05c-1.01,1.33,3.46,3.65,4.6,4.37,3.63,2.27,29.14,16.93,30.87,17.28,11.37,2.27,29.89-7.51,42.52-1.65.44,5.28.2,3.3-3.04,3.91-10.19,1.9-21.07,1.58-30.95,5.06l35.39,32.59c12.57,3.63,37.92-7.88,48.63-2.61.92.45,2.52,2.57,1.97,3.01l-39.99,6.03c-.94,3.84,1.41,3.85,3.35,5.63,10.97,10,37.33,23.77,52.02,23.83,3.62.01,6.23-3.13,9.72-3.37,7.6-.5,15.29.12,22.88-.09l-1.98,7.03-8.02.97c-1.58,6.43,8.27,3.83,12,6.01,7.19,9.84-29.47,3.94-32.45,3.44-7.28-1.22-14.23-4.4-21.54-5.44-1.48,1.21,30.89,38.49,6.9,24.08-10.69-6.42-17.37-23.65-24.82-33.18l-34.07-22.91c2.44,7.88,4.01,16.27,7.01,23.97,2.82,7.25,15.41,19.01,4.02,22-26.18-21.05-11.17-63.68-43.02-77.98-2.51,3.41,3.72,24.09,3.58,29.52-.07,2.69-1.92,5.1-4.58,4.47-11.76-20.22-.6-49.12-31.02-55.98,1.94,7.96,5.23,14.48,4.18,23.13-.61,5.02-7.81.12-.16,9.83,54.76,69.56,110.8,121.53,201.31,67.36,2.93-1.75,21.18-12.96,18.66-16.31ZM3669.46,529.06c-15.82,3.45-24.42,8.07-30,23.96,3.54,3.24,27.91-19.02,30-23.96ZM1605.45,545.06c-7.33.32-21.26-9.7-26.65-9.52-2.52.08-29.25,10.9-29.31,12.49l3.29,5.09c3.54.92,42.39-2.85,47.48-4.28,2.3-.65,4.82-.68,5.19-3.78ZM3033.44,575.04l-10-30.98c-11.82-5.39-24.81-9.84-37.98-9l47.98,39.98ZM1863.47,579.05c-2.55,2.24,15.85,22.77,17.02,26.12,1.61,4.6-1.47,8.73.85,10.84,4.92,4.49,42.2,22.89,50.16,25.99,31.22,12.16,52.55,13.11,79.8-8.13l58.13-53.83c.09-4.2-24.76-4.64-28.7-5.26-70.22-11.01-142.44-36.06-213.25-13.71-2.87,2.87.18,3.62,2.96,3.98,7.4.94,24.52.83,32.05,0,11.78-1.29,34.48-13.22,45.67-9.74,17.03,5.31-20.07,11.16-21.77,11.66-2.92.86-3.48-1.11-2.91,4.03,9.3.98,22.3,9.39,30.92,9.69,17.49.6,43.42-18.84,55.82-15.44,3.78,1.04,2.91,5.83.77,7.34-6.5,4.61-26.83,4.88-33.51,13.44,31.62,17.26,52.58-13.83,83.98-11,1.34,12.68-17.38,7.57-23.98,15l23.98-1c.71,3.58-1.72,5.1-4.53,6.45-13.39,6.44-42.73,8.21-57.45,5.55l12.16,12.82c3.46,4.29,16.7,7.93,18.9,11.1,5.51,7.93-4.6,6.45-9.12,5.11-22.36-6.62-33.06-34.11-58.99-35.04-2.45-.09-6.46-1.06-4.94,2.95,1.72,4.55,22.14,26.91,17.97,31.02-18.51-2.87-24.25-31.96-38.08-40.9-8.93-5.77-23.42-7.88-33.9-9.08ZM565.45,561.06c-28.98-2.64-56.8-5.43-83.96,7.01l-38.02,18.95c5.8-.56,11.21,1.77,16.91,2.1,28.96,1.68,38.5-8.56,63.54-16.63l41.53-11.44ZM473.46,561.04h-29c-2.74,0-17.91,2.15-21.06,2.94-9.46,2.37-21.35,13.38-31.93,15.09-2.78,2.86.14,3.64,2.95,3.98,7.67.93,16.11-1.08,24.06,2.01l54.98-24.02ZM632.46,591.04h-38c-1.49,0-12.58,2.82-13,5.98l71.97,16.09.04,5.92-26.01-1.97,1.01,7.97c-14.8-9.39-31.17-16.01-49-15.98-4.7,4.13,28.4,29.66,27.98,35.98-8.34,7.62-39.45-33.65-46.09-36.88-4.22-2.05-25.43-5.08-30.86-5.18-3.13-.06-3.48-.4-3.01,3.04l25.95,34.07c1.15,4.11-2.04,3.31-4.53,2.48-11.52-3.82-31.73-41.52-40.44-41.52h-39c7.76,16.45,27.14,28.34,37.09,41.91,2.01,2.74,3.77,4.04,2.9,8.08-21.76-8.67-36.97-30.62-48.96-50.02l-4.02-1.98c-7.86.39-15.65-.3-23.47-.6-1.12-.04-5.39-2.23-5.49,1.59-.2,7.41,26.2,40.25,33.91,46.01-1.57,1.76-2.26,3.06-4.92,3.03-12.36-.14-34.51-39.33-35.3-51.76l-31.72-4.26c-3.77,4.12,15.8,29.55,18.44,34.6,1.14,2.18-.7,5.37.53,7.3,3.32,5.16,45.05,29.45,53.08,33.03,81.6,36.37,135.32-9.16,213.48-20.38,18.14-2.6,36.12-3,54.45-2.57-41.66-40.62-93.09-74.16-152.01-81.97l.08,7.03c-21.3,3.53-42.43,7.52-62.57,15.45-2.66,1.05-9.02,2.47-9.49,5.48,15.71-1.32,31.27,3.8,47,2.03,10.94-1.23,24.28-7.43,36.57-9.43,15.1-2.45,29.48-4.35,44.45.39l-1.03,7.03ZM395.46,565.06l-61.99,4.97c8.12,3.86,28.45,9.47,36.9,8.92,5.05-.33,21.31-9.5,25.09-13.89ZM1850.9,579.62c-6.87-5.7-32.29-1.64-41.47.42-2.2.49-6.47.02-5.96,2.98l65.97,26.02-18.55-29.41ZM391.44,621.04l-12.05-26.93-29.93-5.05,41.98,31.98Z" style="fill: #f6cc42;"/>
  <path d="M1313.44,133.03c6.18,33.92,27.15,62.18,38,94-17.55-14.87-44.71-68.99-42.03-90.99.33-2.75,1.28-5.95,4.03-3.01Z" style="fill: #f6cc42;"/>
  <path d="M1389.47,221.03l26.32-50.65,5.64-5.34c.43,9.56-4.12,20.11-8.34,28.64-1.39,2.81-19.3,31.94-23.63,27.35Z" style="fill: #f6cc42;"/>
  <path d="M1373.45,163.04c2.02,18.84,3.3,40.87-1.72,59.37-.93,3.43,1.44,5.57-4.26,4.62.34-20.2-.61-40.97,2.02-61.01.47-3.59-.85-3.28,3.96-2.98Z" style="fill: #f6cc42;"/>
  <path d="M2541.45,197.03c-2.14,2.24-13.35-9.98-14.86-12.12-7.95-11.17-19.85-43.55-20.92-57.15-.33-4.23-1.35-7.77,2.8-10.69,2.43.04,13.43,39.87,16.03,45.93,2.11,4.91,18.76,32.13,16.96,34.02Z" style="fill: #f6cc42;"/>
  <path d="M2605.45,141.05c1.18,11.19-3.41,22.78-8.23,32.75-1.21,2.5-13.86,25.41-17.75,21.23l20.98-50.08,5-3.9Z" style="fill: #f6cc42;"/>
  <path d="M2555.46,141.04h3.97c-.51,1.92,2.03,4.26,2.03,5v53h-3.99c1.68-3.74-2.01-9.19-2.01-11v-47Z" style="fill: #f6cc42;"/>
  <path d="M1971.45,51.02c-11.67,4.7-21.18-2.63-21.99-14.94l4.02-2.07c2.71,10.6,16.04,8.07,17.98,17.02Z" style="fill: #f6cc42;"/>
  <rect x="1980.92" y="28.86" width="5.07" height="6.36" transform="translate(1333.6 1906.29) rotate(-71.8)" style="fill: #f6cc42;"/>
  <path d="M2111.45,251.02c-1.71,8.47,2.68,21.63,12.96,21.81,5.86.1,14.96-9.09,12.13,4.29-7.09,5.87-20.86,5.91-27.14-1.02-6.07-6.7-9.67-27.19,2.05-25.07Z" style="fill: #f6cc42;"/>
  <path d="M2135.47,253.05h2.96c8.59,3.35-3.4,19.27-2.96,0Z" style="fill: #f6cc42;"/>
  <path d="M1699.36,37.12c0,8.97,3.09,18.78,13.28,19.91,3.25.36,20.54-4.79,13.89,6.09-2.49,4.07-13.64,4.57-18.15,4.02-12.79-1.57-22.15-18.4-16.62-29.8l7.6-.22Z" style="fill: #f6cc42;"/>
  <path d="M1729.45,45.03h-5.98c-.25-4.18-.76-7.49,2.99-9.95,3.75,2.46,3.24,5.77,2.99,9.95Z" style="fill: #f6cc42;"/>
  <path d="M1683.44,223.05c2.29,3.07-4.78,7.08-7.47,7.63-8.47,1.7-19.21-5.79-21.63-13.52-1.97-6.29-3.01-18.67,6.11-14.14,2.16,5.74,1.45,13.12,7.08,16.95,3.99,2.72,15.22,2.18,15.9,3.09Z" style="fill: #f6cc42;"/>
  <circle cx="1689.44" cy="211.98" r="4.55" style="fill: #f6cc42;"/>
  <path d="M1769.45,259.05c-.36,5.34.97,16.46,6.02,18.98,4.17,2.08,11.19-.2,13.49,5.96l-1.74,4.84c-11.03,2.51-23.87-3.1-25.67-14.93-.98-6.41-.32-14.54,7.9-14.85Z" style="fill: #f6cc42;"/>
  <path d="M1797.45,265.04v7.98s-2.96,0-2.96,0c-3.14-2.1-3.49-4.28-3.02-7.97h5.98Z" style="fill: #f6cc42;"/>
  <path d="M1881.47,329.05l-.19,7.81c-18.88,5.55-37.05-8.94-20.82-25.77l5.8,16.15,15.21,1.81Z" style="fill: #f6cc42;"/>
  <g>
    <path d="M3699.45,319.05c3.6,3.59-15.58,21.17-16.98,25.98-6.3-2.43.96-11.94,2.94-15.04,3.18-4.98,6.83-11.98,14.04-10.94Z" style="fill: #f6cc42;"/>
    <path d="M3811.45,259.03c-4.91,4.52-19.43-15.79-21.59-19.39-6.82-11.37-11.67-25.31-12.39-38.59,4.12-.86,4.63,2.05,6.37,4.61,4.87,7.16,8.06,18.98,12.58,27.42,1.93,3.59,17.02,24.12,15.03,25.95Z" style="fill: #f6cc42;"/>
    <path d="M3827.46,254.04c-.48,1.67-3.84,3.65-5.99,2.99-4.06-18.61-1.63-39.16,1.98-57.02l4,2.02v52Z" style="fill: #f6cc42;"/>
    <path d="M3857.45,211.05c-.01,4.16.49,8.42-.44,12.54-1.09,4.85-19.49,37.52-25.54,31.44-.35-8.71,7.51-14.14,11.59-21.39,3.41-6.05,5.91-12.7,9.42-18.66,1.52-2.58-.36-5.04,4.96-3.94Z" style="fill: #f6cc42;"/>
    <path d="M3441.45,113.02c-1.05,15.23,6.18,24.19,22,22.03.6,2.83-.24,3.26-2.06,4.91-13.05,11.77-35.15-10.96-26.1-25.74l6.16-1.19Z" style="fill: #f6cc42;"/>
    <path d="M3473.45,123.03c-7.38,1.18-8.74-3.18-7.98-9.98,7.38-1.18,8.74,3.18,7.98,9.98Z" style="fill: #f6cc42;"/>
    <path d="M3357.45,181.05c-3.2,22.74-37.48,5.51-31.75-12.71l4.74-3.3c7.07,13.99,9.15,21.85,27.02,16Z" style="fill: #f6cc42;"/>
    <path d="M3357.45,173.03c-3.54,3.81-8.95-8.01-2.99-7.95,2.06.02,4.23,6.62,2.99,7.95Z" style="fill: #f6cc42;"/>
    <path d="M3595.34,239.12c2.76,15.28,3.86,18.14,20.15,18.88,6.86,7.73-3.84,9.81-10.84,9-13.1-1.51-20.97-16.14-15.04-27.83l5.73-.04Z" style="fill: #f6cc42;"/>
    <circle cx="3623.44" cy="243.98" r="4.55" style="fill: #f6cc42;"/>
    <path d="M3301.45,311.03c-1.33,21.64,10.67,15.32,26,14.02.27,17.41-30.29,14.8-33.55.56-1.64-7.17-1.69-16.19,7.56-14.58Z" style="fill: #f6cc42;"/>
    <path d="M3322.46,305.08c3.78,0,3.78,9.92,0,9.92s-3.78-9.92,0-9.92Z" style="fill: #f6cc42;"/>
    <path d="M3519.45,427.05c-5.09,11.81,1.51,19.45,14,18,.38,7.21-7.41,6.73-12.55,5.57-11.39-2.55-11.03-13.21-7.62-22.41l6.17-1.16Z" style="fill: #f6cc42;"/>
    <path d="M3541.45,433.03c-3.02,3.02-8.53-5.95-2.99-5.95,1.32,0,4.14,4.8,2.99,5.95Z" style="fill: #f6cc42;"/>
  </g>
  <g>
    <path d="M707.18,148.85c1.3-.74,4.61-12.74,12.27-9.8,5.29,5.31-15.32,15.64-18.94,15.82-19.6,1-32.14-31.74-14.08-41.91l5.04,3.12c-5.08,9.77-7.24,21.79,3.26,28.69,1.89,1.24,11.1,4.86,12.45,4.08Z" style="fill: #f6cc42;"/>
    <path d="M521.92,155.53c9.59-11.04,5.34,10.26,5.4,12.47.45,15.99,15.97,12.93,19.17,17.01,5.36,6.83-8.76,6.33-14.18,4.17-11.71-4.67-18.15-24.71-10.39-33.65Z" style="fill: #f6cc42;"/>
    <path d="M561.45,167.05c1.48,3.26-2.3,11.95-4.99,11.95-4.71,0-4.7-15.31,4.99-11.95Z" style="fill: #f6cc42;"/>
    <path d="M743.45,383.05c-3.16,17.96,5.99,22.2,19.97,28.99-11.54,13.37-29.69-1.58-30.06-16.09-.17-6.54,2.13-14.31,10.09-12.9Z" style="fill: #f6cc42;"/>
    <polygon points="777.45 389.05 777.45 401.03 771.68 397.76 771.68 392.31 777.45 389.05" style="fill: #f6cc42;"/>
    <path d="M847.45,289.04c-1.65,15.33,2.43,22.09,18.05,22.95,2.67,1.94,2.82,4.28.03,6.1-6.13,3.98-20.39-2.19-23.84-8.28-3.77-6.65-5.17-23.07,5.77-20.77Z" style="fill: #f6cc42;"/>
    <path d="M875.44,303.02c-5.52,3.89-8.67-11.85-2.99-11.95,3.68-.06,5.91,9.89,2.99,11.95Z" style="fill: #f6cc42;"/>
    <path d="M385.92,271.53c2.04-2.35,6.01-2.79,7.53.54-6.58,19.85,3.02,20.96,16.64,27.34,7.02,3.29-1.88,7.35-5.75,7.56-16.99.92-28.34-24.02-18.42-35.44Z" style="fill: #f6cc42;"/>
    <polygon points="421.44 285.05 421.59 293.78 415.47 295.03 421.44 285.05" style="fill: #f6cc42;"/>
    <path d="M869.45,181.05c-1.44,15.8.87,24.06,18.01,24.99,10.75,7.31-13.28,15.13-23.73,1.73-6.06-7.78-7.65-27.48,5.72-26.72Z" style="fill: #f6cc42;"/>
    <path d="M897.45,199.05l-6.16-1.18c-1.62-4.64-3.76-9.36,1.2-12.82,5.98-1.29,5.35,10.42,4.96,14Z" style="fill: #f6cc42;"/>
  </g>
</svg>