<?xml version="1.0" encoding="UTF-8"?>
<svg id="Layer_1" data-name="Layer 1" xmlns="http://www.w3.org/2000/svg" width="147.16cm" height="147.17cm" viewBox="0 0 4171.54 4171.65">
  <g>
    <path d="M252.04,860.03c-2.55,0-15.75,3.53-19.43,4.57-24.17,6.86-45.53,21.74-64.71,37.42-1.2,1.88,6.46,20.27,6.94,25.24,4.33,44.93-60.9,62.79-80.6,24.57-17.14-33.25,9.66-66.06,45.64-61.63,6.28.77,10.49,5.17,17.63,3.42,4.24-1.04,32.12-24.36,40.92-29.2,16.76-9.24,40.54-17,59.64-18.36,11.21-.8,33.43,4.12,40.94.93,4.89-2.08,35.66-36.09,42.98-43.01,28.6-27.02,58.96-52.38,85.05-81.93-69.8-4.75-140.34-6.88-207.04,17.94-5.62,2.09-10.93,5.06-16.92,6.1.84,8.64,6.1,15.82,6.1,24.93-.02,37.09-48.32,53.19-71.18,25.04-21.21-26.11-3.37-65.3,30.12-66.1,9.13-.22,22.13,7.57,27.12,7.12,5.65-.51,21.74-9.96,29.3-12.55,69.94-23.92,142.55-20.13,215.09-14.93,22.35-19.15,40.79-42.38,57.78-66.3,1.55-2.18,4.39-2.94,5.65-4.78,6.76-9.9,11.06-26.01,17.97-36.48-64.45-21.41-135.27-6.7-196.24,18.87-2.15,2.63.76,13.57-.24,19.63-5.2,31.79-45.9,43.98-68.81,20.76-29.18-29.58,4.1-80.66,44.68-63.68,8.02,3.36,11.06,11.1,19.35,10.35,66.03-25.81,138.82-41.95,207.99-17.79,39.63-79.96,66.98-191.75,36.79-278.68-39.98-115.11-183.5-63.47-171.3,37.3,2.94,24.29,31.37,53.64,55.27,35.92,19.83-14.71-4.45-61.93,18.55-71.65,26.52-11.21,38.49,28.32,38.03,47.84-1.81,75.99-102.96,79.27-122.67,8.72-35.05-125.45,140.54-200.53,192.96-72.96,18.83,45.82,19.45,103.49,13.38,152.11-2.34,18.75-9.76,39.31-11.52,56.46-4.81,46.69,70.96,121.07,94.12,163.45,58.52,107.11-11.45,177.16-14.45,284.28-.24,8.47,7.85,41.55-9.77,29.92-13.55-8.94-53.24-61.37-62.96-77.03-52.51-84.62-37.97-167.35-33.19-260.85,1.07-20.9.17-42.08,2-62.97l-11.69,21.28c-24.12,60.9-48.65,127.61-52.27,193.73-9.72,177.92,83.7,342.02,42.62,520.62-20.97,91.17-32.69,138.36-8.07,232.79,33.82,129.71,96,273.08,72.84,409.98-1.48,8.72-6.26,18.81-7.24,26.75-10.04,81.3,117.53,183.18,57.78,259.79-13.04,16.72-45.87,53.56-61.9,66.1-16.25,12.71-18.6,5.96-21.49-10.61-3.9-22.32-5.32-46.19-9.14-68.86-9.14-54.33-24.44-105.75-11.44-161.58-25,34.86-53.55,65.7-68.01,106.97-19.5,55.65-24.58,114.5-9.82,171.88,20.8,80.88,45.26,131.17,35.6,219.9-6.65,61.04-32.74,110.64-45.12,168.88-18.87,88.76,7.77,116.2,88.02,146.72,70.81,26.94,134.47,20.84,141.33,116.67.7,9.79-1.98,87.66-7.2,89.11-15.37,2.56-21.14-9.85-30.95-16.96-41.89-30.36-95.77-46.52-132.84-85.16l-1.01,3c23.62,46.16,45.17,91.98,31.01,144.97-2.1,7.85-10.98,25.59-11.04,30.96-.08,6.91,6.5,23.65,9.69,30.43,32.44,69.11,135.34,105.93,142.34,183.66,3.62,40.19-11.87,88.77-39.92,118.02-4.09,4.27-9.68,12.02-16.1,8.03-2.58-1.6-17.12-48.45-21.01-57.01-26.96-59.26-76.37-83.35-94.37-149.63-7.9-29.1-10.94-58.5-6.59-88.43-31.69,38.76-37.87,93.99-29.39,142.41,6.07,34.67,20.17,68.28,27.16,102.84,6.56,32.42,4.6,63.37,12.82,95.18,13.58,52.55,44.2,101.42,56.84,155.16,15.84,67.3,12.34,147.85-21.82,209.01-8.27,14.81-27.52,33.69-29.37,48.63-3.58,28.95,15.93,57.02,17.73,85.8,3.63,58.23-38.3,67.07-74.9,97.04-10.73,8.79-29.28,38.24-34.88,8.76-4.39-23.09-7.84-64.91-3.97-87.61,4.33-25.37,18.84-47.02,33.79-67.19-1.72-1.37-35.19,14.06-40.93,16.05-40.54,14.08-82.98,22.62-125.03,30.97-5.68,7.27-5.12,16.37-10.39,25.61-17.11,30-85.39,69.35-113.73,38.43-10.27-11.2-3.1-22.03-6.8-27.2-1.45-2.04-8.43-2.28-11.88-4.12-20.91-11.21-18.68-48.76,4.67-55.9-10.55-21.31,1.56-40.7,24-44.94,42.2-7.98,91.3,10.99,108,52.2,20.99-.79,44.11-6.13,64.95-11.26,66.6-16.37,146.09-43.76,181.13-106.87.42-1.35-1.91-1.45-2.96-.97-3.66,1.67-12.88,10.44-18.42,13.6-58.72,33.48-90.22,13.92-149.7,16.31-22.54.9-47.76,7.99-70.01,12.18-15.58-.02-.31-28.7,3.37-36.82,6.53-14.39,15.34-28.57,24.93-41.07,73.19-95.47,132.44-25.89,225.15-44.85,4.77-.97,13.89-1.5,16.56-5.44,2.18-3.21,4.69-23.69,5.06-28.94,5.91-85.03-37.24-157.19-63.02-234.94l-2.94-2.03c-3.66,11.23-8.49,22.39-14.41,32.61-6.91,11.91-18.89,22.69-24.72,33.28-13.17,23.94-15.21,59.94-18.52,86.69,1.26,8.84,21.99,11.01,26.68,29.36,17.17,67.17-91.7,54.93-65.4-3.29,5.38-11.92,11.46-10.55,17.26-16.75,7.56-8.07,15.59-54.32,16.83-67.17.19-1.91,1.37-6.04-.73-6.73-45.23,36.51-97.7,72.18-134.95,117.05-4.35,5.24-25.66,33.77-26.08,38.06-1.05,10.68,17.51,19.26,6.98,46.85-19.52,51.17-99.18,18.15-73.77-33.77,10.29-21.01,33.46-24.55,54.43-20.58,16.55-25.52,37.46-50.51,59.33-71.67,6.3-6.09,15.3-12,21.7-18.3,1.81-1.78,4.35-1.76,3.33-5.65-60.27,21.26-126.41,13.33-186.8-3.7-19.74,39.58-82.23,29.76-81.34-17.29.87-45.8,65.29-53.93,81.11-12.96,2.05,5.32,1.67,15.12,6.41,17.59,42.06,9.35,86.54,17.54,129.71,12.44,3.02-.36,4.96-.09,6.89-3.07-20.25-26.69-40.48-56.02-65.94-78.03-3.82-3.3-23.19-18.9-26.13-19.94-9.53-3.38-11.7,5.88-19.77,10.09-24,12.52-56.03-4.83-58-32.41-2.73-38.24,44.81-56.34,68.94-28.78,12.94,14.79,5.35,28.12,10.8,37.2,1.81,3.01,27.21,19.78,33.09,24.91,26.2,22.9,48.27,53.44,68.06,81.93,7.86,6.55,33.62-3.55,42.96-7.02,49.85-18.49,94.82-61.7,119.98-107.98-4.51-5.47-12.57-2.11-18.93-3.01-32.35-4.57-63.64-19.06-96.07-24.16-8.02-.31-8.2,8.71-12.09,14.05-19.6,26.89-67.26,14.5-70.92-18.82-4.56-41.46,52.38-61.69,73.74-23.74,2.6,4.63,3.61,14.97,7.64,16.36,36.88,1.59,79.03,27.23,115.56,22.14,10.75-1.5,10.56-15.51,11.19-24.74,4.18-61.32-7.63-90.62-21.51-146.65-9.69-39.11-14.47-76.23-6.58-116.42-2.2-2.17-13.05,9.82-15.02,11.96-48.83,52.97-46.78,133.65-128.95,151.05-28.96,6.13-67.86,3.44-96.01-6.04-8.16-2.75-21-4.5-14.12-16.09,14.58-14.59,29.58-29.33,43.13-44.86,43.53-49.87,107.87-153.22,178.21-159.77,21.57-2.01,35.08,6.35,52.73,15.75,18.01-34.98,47.2-67.46,50.1-108.93,3.34-47.71-24.12-91.95-44.1-133.06-3.53-.51-1.95,4.5-1.51,6.51,3.31,15.14,11.6,30.6,13.29,46.72,5.08,48.35-8.96,80.23-58.1,91.4-9.17,2.09-46.66,8.64-48.79-2.5-1.1-5.75,9.59-51.9,10.88-63.41,3.24-28.75-.86-59.97,13.84-86.16,8.56-15.25,28.39-31.26,46.43-32.6-5.22-19.97-15.27-38.14-21.01-57.99-14.64-50.67-14.44-102.72-3.02-154-41,26.85-25.95,76.85-36.96,118.01-21.48,80.25-112.32,103.48-185.69,105.66l-4.35-5.46c-.97-4.52,29.15-56.23,34.19-64.04,25.16-38.98,57.51-68.72,92.83-98.15-33.04,5.59-66.03,8.28-99.55,9.31-4.61,1.88-3.95,9.68-6.08,14.06-21.17,43.64-89.45,75.62-136.89,68.13-27.5-4.34-34.43-29.94-21.53-52.4-36.45-13.73-38.31-58.81-.08-71.27.22-7.54-5.73-13.21-5.96-20.92-.64-20.79,20.39-31.33,37.99-34.03,54.39-8.35,120.34,26.04,130.29,82.91,28.49.96,57.49-1.39,85.44-7.17,77.76-16.06,120.41-57.15,143.36-132.64,17.01-55.93,25.03-114.03,12.98-171.98-5.84,2.95-3.37,13.21-4.23,18.73-9.89,63.41-30.7,102.89-81.96,142.05-41.99,32.08-96.78,39.48-148.7,41.29-11.89.41-24.57,3.57-19.53-11.52,8.57-25.68,40.96-71.64,58.5-93.5,52.68-65.67,126.64-103.14,153.38-188.62,12.71-40.64.02-79.98,4.59-121.41,3.57-32.33,12.31-64.18,21.96-95.02-30.6,21.49-62.38,42.05-91.81,65.17-15.88,12.48-35.5,28.21-49.2,42.8-5.7,6.07-35.32,42.33-36.63,47.54-1.87,7.49,11.32,16.87,13.2,25.94,3.5,16.87-1.38,35.65-16.91,44.18-42.9,23.56-79.32-29.88-48.72-60.71,11.46-11.54,25.13-10.29,40.11-11.89,18.19-34.37,45.74-61.07,73.97-87.01-11.81.7-25.3,3.59-36.92,4.06-15.62.63-34.48-3.36-48.09-2.09-14.71,1.38-35.46,9.78-52.22,11.77-27.67,3.29-57.71.7-85.18-4.35-12.33-2.27-42.27-13.65-50.67-13.55-6.14.08-11.67,8.55-18.44,11.62-33.19,15.02-68.63-15.77-54.22-50.22,18.95-45.3,84.33-24.29,76.06,24.42,40.05,17.76,87.1,23.58,130.65,18.29,4.97-.6,25.38-3.39,27.01-6.99-35.74-14.19-68.59-37.24-91.65-68.33-8.13-10.96-25.06-46.77-30.94-52.05-4.48-4.02-16.06-5.79-22.15-8.86-44.29-22.36-61.33-65.27-57.47-113.54-43.21-12.87-32.95-77.25,13.21-76.37,43.26.82,53.23,59.19,16.49,76.64-4.55,2.16-11.97.44-14.5,5.5-7.24,43.62,16.63,89.41,61.01,100.01-9.82-62.01,7.71-117.6,49.95-163.05,4.16-4.48,14.04-10.05,16.18-13.82,3.04-5.37,1.63-12.54,4.41-19.59,10.18-25.83,49.18-29.26,65.46-6.51,23.95,33.46-12.5,74.4-48.62,56.62-7.15-3.52-11.22-10.21-18.09-13.49-51.93,48.08-74.68,128.44-36.27,191.82,11.37-25.24,25.17-47.4,47.17-64.79,6.57-5.2,39.39-22.73,40.93-25.15,1.71-2.68-1.82-17.4-.61-24.55,3.97-23.45,31.89-37.2,53.5-28.46,36.71,14.84,26.45,73.02-14.99,72.96-8.9-.01-23.72-7.95-29.06-7.17-6.19.9-25.4,10.87-31.4,14.74-27.41,17.66-69.54,64.53-44.49,97.41,27,35.43,76.21,56.74,118.98,64.98l2-3.93c-19.75-19.93-22.77-53.19-9.44-77.42,2.6-4.73,13.46-15.5,14.14-18.03.96-3.6-1.88-10.59-1.26-17,4.49-46.6,72.8-40.92,71.39,3.13-.68,21.14-17.89,36.2-38.75,35.37-14.45-.58-21.51-14.11-33.11,2.93-13.71,20.13-6.55,51.19,11.97,66.05,12.63,10.14,23.59,7.06,38.5,4.42,97.96-17.39,223.4-162.39,242.61-257.39,10.21-50.49,3.21-112.28-7.66-162.48-1.28-5.9-2.33-16.19-7.39-19.59-.96,65.6-15.99,170.41-78.68,206.34-37.36,21.41-82.03,18.62-122.63,29.57-15.94.11-5.9-24.83-3.25-33.45,13.15-42.76,39.66-105.36,69.52-138.48,32.68-36.26,81.4-52.93,106.07-95.93,4.26-7.43,13.63-25.76,14.58-33.58.89-7.36-2.43-17.53-4.18-24.89-9.84-41.28-27.46-83.85-38.43-125.57-12.85-48.87-19.98-95.18-13.03-145.99-16.59,23.64-33.68,46.75-39.09,75.89-11.79,63.43,7.04,122.84-32.07,181.93-22.1,33.38-82.97,73.28-122.29,79.7-4.51.74-14.38,2.4-14.49-4.38-.09-6,10.99-31.89,13.4-40.71,9.63-35.29,13.3-74.67,28.21-107.79,4.8-10.67,11.94-19.87,16.34-30.64-23.73,12.42-48.44,22.77-74.02,30.96-3.04,13.64-5.37,24.95-13.09,36.91-18.96,29.37-87.66,64.4-122.11,67.89-41.37,4.19-81.69-10.59-48.76-55.73-34.64-9.47-48.99-50.66-14.03-71.02-38.89-41.07-2.15-65.6,41.07-68.97,52-4.06,128.26,25.08,152.23,74.13,115.52-32.81,200.53-127.1,239.26-238.64l10.48-43.52c-39,58.39-104.32,119.43-177.91,124.09-42.48,2.69-96.78-8.69-137.95-20.25-10.44-2.93-24.39-4.14-15.13-16.84,5.28-7.25,24.13-23.17,31.95-30.04,19.37-17.01,45.36-37.46,67.42-50.58,65.78-39.11,143.72-29.71,193.43-96.57,57.61-77.49,27.05-129.1,11.8-213.46-14.99-82.95-26.88-160.48-12.04-244.78,4.21-23.94,12.5-47.55,15.39-71.59l-89.77,91.28c39.98,50.84,31.38,122.71,10.47,179.76,20.47,15.67,31.49,42.29,14.37,65-31.14,41.34-97.36-4.88-65.04-49.04,11.01-15.05,34.65-17.9,38.95-23.05,1.8-2.16,5.72-16.99,6.89-21.11,10.29-36.47,15.07-78.74,1.13-114.83-2.19-5.68-12.18-26.14-17.97-26.1-43.78,39.62-89.53,79.47-124.26,128.03l.21,3.93c35.92,40.16,39.7,91.15,29.03,142.11,56.79-.61,49.33,87.11-8.11,75.12-28.9-6.03-37.87-41.98-18.92-63.15,12.47-13.94,14.9-7.95,18.83-31.17,6.26-36.96-3.4-85.72-30.79-112.76-32.3,44.35-51.55,97.64-58.94,151.9,38.41,1.43,43.71,58.91,10.75,71.88-36.8,14.48-67.69-24.05-46.48-56.48,5.97-9.13,14.55-11.18,22.65-17.35,8.25-48.98,21.09-96.73,46.18-139.82l50.84-70.16h-33ZM67.54,2199.73c0-15.31-12.41-27.72-27.72-27.72s-27.72,12.41-27.72,27.72c0,15.31,12.41,27.72,27.72,27.72s27.72-12.41,27.72-27.72ZM74.51,1941.51c0-14.98-12.14-27.12-27.12-27.12-14.98,0-27.12,12.14-27.12,27.12,0,14.98,12.14,27.12,27.12,27.12,14.98,0,27.12-12.14,27.12-27.12ZM109.68,2819.67c-13.27,5.75-32.18,16.62-25.12,33.84,5.28,12.88,25.78,13.36,37.55,12.58,31.73-2.12,93.53-33.06,101.99-66.01,14.59-56.8-77.56-104.91-123.86-85.86-24.8,10.2-18.35,33.36,4.25,41.35,9.21,3.25,26.87,3.09,33.17,6.83,13.46,7.98-6.59,10.08-13.7,9.69-19.84-1.1-36.45-16.62-54-.14-17.96,16.87-.38,43.54,21.98,42,7.29-.5,47.08-19.75,53.09-13.9,8.49,8.25-31.65,18.03-35.35,19.63ZM89.87,1674.1c6.44,23.46,56.4,12.35,73.08,6.84,45.93-15.14,128.32-66.98,76.07-119.91-32.02-32.44-98.12-50.73-142.08-40.11-37.45,9.05-28.42,39.65,3.69,48.51,14.4,3.97,39.81,4,51.39,8.61,2.31.92,5.8,1.56,5.01,4.96-2.22,9.59-43.65,3.59-52.06,2.09-13.17-2.35-13.91-9.79-27.97,1.89-23.36,19.42,1.68,46.67,25.15,47.12,8.57.17,17.44-7.09,25.85-10.12,9.35-3.37,36.29-13.88,32.83,3.85-15.98,4.14-77.44,22.64-70.96,46.26ZM150.14,3700.12c23.68-42.86-46.77-65.12-54.63-22.64-6.47,35.03,38.2,52.37,54.63,22.64ZM163.35,931.42c0-17.6-14.27-31.87-31.87-31.87-17.6,0-31.87,14.27-31.87,31.87s14.27,31.87,31.87,31.87c17.6,0,31.87-14.27,31.87-31.87ZM198.74,770.67c0-16.38-13.28-29.65-29.65-29.65-16.38,0-29.65,13.28-29.65,29.65,0,16.38,13.28,29.65,29.65,29.65,16.38,0,29.65-13.28,29.65-29.65ZM203.54,3574.11c0-15.08-12.22-27.3-27.3-27.3s-27.3,12.22-27.3,27.3,12.22,27.3,27.3,27.3,27.3-12.22,27.3-27.3ZM178.08,4104c7.95,17.39,48.36,5.25,61.57-2.37,77.31-44.59,18.47-115.95-47.09-107.09-24.29,3.28-43.94,23.91-11.6,32.57,10.82,2.9,23.01,2.12,33.86,5.13l.23,9.79c-8.88-.51-18.14.72-26.99-.03-11.89-1-21.59-9.63-32.1,1.94-12.75,14.02-1.78,31.57,16.14,32.17,11.25.37,21.22-8.67,32.93-6.08.23,16.49-36.93,12.13-26.95,33.96ZM221.17,1108.7c0-13.7-11.11-24.81-24.81-24.81s-24.81,11.11-24.81,24.81,11.11,24.81,24.81,24.81,24.81-11.11,24.81-24.81ZM243.12,1904.95c1.05-36.15-50.18-34.7-53.72-3.39-3.85,34.08,52.73,37.47,53.72,3.39ZM229.05,1390.05c-.48,2.86,3.53,2.8,5.58,3.36,25.67,7,71.44,16.19,97.38,14.59,44.99-2.78,88.8-26.65,121.02-56.99.68-1.74-2.88-.44-3.48-1.38-1.13-1.76,6.07-35.42,7.16-40.97.52-2.64.06-3.73-2.64-2.62-2.33.96-24.43,17.84-25.96,20.05-6.81,9.85-16.45,50.99-28.31,55.69-1.19.47-4.7,1.07-4.79-.79l20-48.98c-6.09,4.69-20.94,8.79-25.93,13.05-3.16,2.7-12.71,22.92-18.11,29.89-6.07,7.83-15.99,20.57-25.93,21.05-4.83-4.88,31.34-35.75,29.98-45.98l-36.58,11.87c-2.47,7.26-37.97,45.58-43.4,40.11,2.56-14.59,22.46-21.77,27.99-35.97-4.42-3.48-38.66,14.19-45.44,15.6-8.75,1.82-10.36-3.67-4.49-8.55,5.1-4.24,13.87-2.89,17.48-11.03l42.45-10.06-38-21.96c19.17-4.59,37.9,15.46,55.22,15.82,3.12.07,20.37-5.19,22.81-6.81,2.85-1.89,1.92-2.13-.12-3.94-9.72-8.66-27.8-13.71-35.91-25.07,15.94-1.5,37.6,22.73,50.96,22.12,5.24-.24,36.95-16.59,37-19.14l-35.92-20.05c-3.34-1.44-.44-4.67,1-4.96,8.99-1.77,32.96,16.69,42.81,19.1l26.11-22.11c-.18-4.21-27.67-3.65-25.94-11.96,1.51-7.25,17.16.28,21.14.8,18.58,2.44,24.87-5.25,30.84-21.82-1.79-1.59-16.83,2.96-19.95-3.01.15-5.38,22.16-5.57,26.53-7.43,10.05-4.26,26.24-59.18,28.57-71.45.43-2.25,2.35-5.56-2.12-4.13-1.21.39-9.44,19.31-11.41,22.62-47.48,79.79-81.47,75.94-161.53,102.47-52.96,17.55-97.31,53.11-137.1,90.92l2.02,4h29s-9.99,4.03-9.99,4.03ZM275.6,3838.69c0-14.98-12.15-27.13-27.13-27.13s-27.13,12.15-27.13,27.13c0,14.98,12.15,27.13,27.13,27.13s27.13-12.15,27.13-27.13ZM271.05,2916.02c-3.93-8.55,28.8-25.28,23.98-29.98l-25.98,5.98c4.74-16.33,30.74-13.77,41.88-19.09,1.53-.73,19.52-20.55,20.09-21.92,1.59-3.84-2.06-3.14-4.58-2.58-6.16,1.36-30.36,14.02-32.36,13.62l-3.03-4.98c21.54-20.51,61.71-12.33,65.98-49.02-6.64,2.3-14.82.92-20.9,2.08-17.71,3.39-64.01,62.36-75.13,78.87-3.8,5.64-30.82,48.3-27.95,51.03,57.34-4.38,125.44-22.27,152.74-78.24,5.85-12,11.25-31.59,11.25-44.75v-36c0-.81,5.14-3.51-.96-2.97-24.12,9.88-3.92,33.12-7.06,46.89-.41,1.79-2.97,4.03-5,1.11-2.62-3.77-4.64-24.07-7.98-23.98-14.9,15.97-7.95,25.31-6.91,42.87.67,11.23,1.92,27.34-7.09,35.05-8.92-.01-.33-37.69-2.99-44.95l-3.97-.99c-4.03,10.84-20.22,20.91-23.1,31.93-2.17,8.3-.12,16.7-.97,25.03-.72,6.96-1.71,24.47-9.97,25.03v-38c-6.1,4.35-43.63,44.46-49.99,37.99ZM290.43,2354.84c0-15.1-12.24-27.34-27.34-27.34-15.1,0-27.34,12.24-27.34,27.34,0,15.1,12.24,27.34,27.34,27.34,15.1,0,27.34-12.24,27.34-27.34ZM259.03,3402.04c4.79,4.3-16.08,12.64-17.41,13.51-1.95,1.26-3.57-.22-2.58,4.47,63.52,16.11,129.48.27,151.99-67l-5.79-1.1c-.26-25.5,4.28-51.06,9.8-75.88-3.52-3.66-33.28,27.99-35.11,33.87-3.04,9.8-.07,27.81-.91,39.09-1.54,20.62-8.39,43.91-22.97,58.99-3.04-2.39-3.05-2.49-2.14-6.05,2.19-8.52,9.08-20.22,11.7-30.35,4.19-16.16,6.31-32.86,5.42-49.56-7.95,9.52-20.15,22.49-25.62,33.36-5.36,10.66-7.22,23.12-13.32,34.68-5.57,10.53-17.43,29.96-31.03,26.97,3.73-5.35,28.37-31.39,23.97-37.01-8.77,4.59-18.65,16.06-27.87,19.13-2.87.95-7.85.98-8.05-2.12-.26-4,36.99-29,37.95-38.99-12.41,2.13-25.06,17.3-36.87,8l-35.12,41.97,23.98-5.98ZM296.62,2012.53c6.09-31.65-44.86-40.63-51.16-13.09-9.34,40.81,45.22,43.99,51.16,13.09ZM352.4,2640.39c25.09-10.15,45.62-28.72,64.63-47.37l-6-1,7.99-41.99c-13.07,19.62-37.01,30.02-52.02,46.96-8.33,9.39-17.15,31.18-29.32,34.69-2.44.7-5.76,1.5-4.61-2.61,1.05-3.76,12.73-16.3,16.05-21.96.91-1.54,4.03-3.51.89-5.11l-66.97,30.01c-.9-3.93,2.08-4.72,4.18-6.8,12.57-12.45,34.9-23.96,51.8-29.22,2.91-2.87-.24-3.63-2.98-3.99-6.87-.91-40.39,4.79-43.03,2.01l.02-5.94c8.31-1.09,16.69-3.03,25.01-4.03,35.14-4.24,55.26,4.06,80-28,1.55-2.01,3.88-2.54,2.98-6l-65.5,13.6-4.48-4.59c1.25-5.5,54.61-13.13,64.03-15.99,26.91-8.17,35-29.51,43.95-53.97l-4.48-2.68c-21.15,1.74-39.65,13.12-59.46,17.57l-1.03-5.94c-40.85,33.09-79.36,73.75-107.84,118.16-3.18,4.97-23.65,39.39-21.16,41.82,35.4-4.86,73.92-4.1,107.35-17.63ZM312.77,633.99c0-15.41-12.49-27.9-27.9-27.9-15.41,0-27.9,12.49-27.9,27.9,0,15.41,12.49,27.9,27.9,27.9,15.41,0,27.9-12.49,27.9-27.9ZM327.69,1089.27c0-15.22-12.34-27.56-27.56-27.56s-27.56,12.34-27.56,27.56,12.34,27.56,27.56,27.56,27.56-12.34,27.56-27.56ZM329.03,3330.04c-24.54.06-38.9,5.36-49.99,27.97,1.54,1.3,13.98-6.34,17.55-7.43,6.35-1.94,19.92-2.44,23.84-5.17,1.42-.99,10.16-13.99,8.6-15.37ZM347.66,3547.67c10.52-40.15-52.04-46.88-54.16-8.12-1.52,27.84,45.91,39.57,54.16,8.12ZM346.09,2093.96c-5.33-20.19-38.79-19.58-42.57,1.54-7.61,42.52,53.06,38.23,42.57-1.54ZM460.11,3852.09c-.77-2,1.54-5.59.93-6.06-37.1-5.56-67.36-13.32-99.88,11.13-24.27,18.24-51.75,57.35-58.11,86.87,16.92-5.17,37.17-9.03,54.9-10.08,46.6-2.78,87.57,12.02,133.05-6.95,5.29-2.21,30.61-16.14,32.03-19.97l-4.09-3.86c.58-6.21,9.02-12.92,7.07-19.16l-28.93,7.07c-7.88,9.65-21.45,30.35-33.54,34.47-2.48.84-7.49,2.24-6.49-2.49l27.98-31.01c-7.48.84-15.11-3.88-22.58-1.62-2.43.73-19.72,17.67-24.75,21.26-2.79,1.99-20.81,14.32-22.65,12.33-1.01-5.01.67-5.02,3.3-7.68,3.99-4.03,30.59-22.19,30.65-25.31-7.46-5.04-28.38-4.62-35.87.09-7,4.41-40.76,43.04-50.08,34.9-.72-3.53,1.82-4.92,3.96-7.02,8.51-8.29,21.91-14.61,30.02-23.98l-41.98,11c-5.89-4.93,32.86-23.97,37.99-22.01-2.14-6.52-23.91-7.33-25.99-10,9.5-12.14,28.81,4.66,39.45,5.6,7.5.66,19.85-3.62,28.53-1.58,1.91-8.54-35.75-18.67-29.98-23.98,11.95-5.42,48.09,25.99,50.99,25.99h29c3.04-2.25-24.06-25.67-24.92-27.93ZM340.94,3316.92c7.9-5.19,18.71-25.45,26.1-32.88-25.83-2.13-37.38,8.23-51.95,27.03-1.48,1.91-9.54,11.57-8.04,12.94,8.83-3.41,26.93-2.52,33.89-7.09ZM370.87,1702.86c7.9-5.17,36.24-27.86,38.16-35.85.38-1.59-4.61-.85-5.71-4.21-1.2-3.67-3.6-34.77-9.28-34.73-15.46,19.02-3.35,36.74-5.01,57.97h-5.99s-5.01-23.97-5.01-23.97c-3.6,5.8-36.44,46.32-42.99,39.95,6.27-16.46,25.78-27.66,29.98-45.98-3.08-3.08-25.08,17.97-29.32,19.66-2.6,1.04-5.21,1.55-4.7-2.67,1.46-12.08,37.55-31.89,48.12-38.42l9.89-36.58c-.78-1.01-19.6,11.41-21.81,13.17-5.3,4.2-17.63,20.28-23.13,18.83l-3.01-4.94c6.49-8.18,13.81-15.51,22.13-21.89,5.53-4.24,29.07-16.71,30.77-19.23,3.5-5.21,3.07-19.64,7.07-25.91-3.19-2.69-21.65,16.18-25.3,17.69-11.81,4.87,3.5-14.45,5.51-16.49,6.52-6.59,20.22-12.44,24.69-17.31,4.01-4.38,7.9-17.65,9.08-23.9-1.76-2.19-38.92,33.71-41.93,37.05-44.44,49.43-46.98,113.66-64.04,174.94,3.71,3.85,54.76-22.53,61.82-27.16ZM400.13,3251.98c-20.97-6.61-42.33,6.66-53.09,24.03,8.75-2.12,22.38-.42,30.12-2.86,8.7-2.75,16.14-16.98,25.88-17.14.61-5.24-.11-3.14-2.91-4.03ZM353.04,2798.01c13.35,2.8,16.71-5.96,22-15.96-1.62-1.49-21.17,11.92-22,15.96ZM426.94,987.16c0-16.06-13.02-29.09-29.09-29.09s-29.09,13.02-29.09,29.09,13.02,29.09,29.09,29.09,29.09-13.02,29.09-29.09ZM490.04,1960.03c5.48-4.35,25.81-25.4,27.01-31.04.27-1.28-3.61.23-4.18-3.8-1.61-11.36,2.82-30.37,2.25-44.24-.25-6.07-1.56-13.29-2.11-19.93-.24-2.96,1.63-5.81-2.95-4.98-1.53.78-20.12,25.77-20.59,27.42-2.57,8.93.29,27.71-.98,39.02-.88,7.86-6.11,33.61-13.45,36.57-4.58,1.12-4.15-5.1-4.06-7.94.51-15.59,11.48-37.47,8.04-55.08-6.61,7.06-22.49,18.41-26.83,26.15-4.1,7.32-6.35,40.22-14.18,41.84-12.37-1.64,3.22-23.57,1.02-25.98-8.92,2.03-13.76,13.71-22.05,16.94-3.03,1.18-7.82,1.03-7.89-1.94-.11-4.71,33.1-33.68,37.94-40.02-2.86-3.01-27.99,7.7-21.05-3.05,4.33-6.71,28.72-7.13,36.16-11.84l32.89-39.11c-15.09-1.07-30.11,7.9-44.97,7.06-2.26-.13-6.66,1.02-5-3.02,5.28-12.83,48.25-7.92,59.91-18.1,2.8-2.44,15.83-29.21,14.06-30.92-7.93-1.38-17.52,6.14-23.95-1.01l30.07-11.89,11.89-31.09c-2.28-2.36-17.35,14.5-20.19,16.79-17.48,14.04-37.7,24.47-54.74,39.26-49.32,42.78-70.71,105.04-89.04,165.94,38.65-8.52,84.86-6.44,116.99-31.98ZM429.38,2431.37c-13.62,23.43-31.6,43.34-50.34,62.64,8.78-1.98,15.83-7.88,24.44-10.54,9.2-2.85,34.86-4.03,39.55-8.45,4.46-4.22,5.94-22.43,6-28.98-1-1.11-28.1,14.48-27.95,4.99.08-5.14,25.99-13.46,29.96-18v-43c-9.13,12.06-13.79,27.81-21.66,41.34ZM427.05,3230l-6.61-7.68c-4.7.25-25.83,10.69-30.15,13.95-2.7,2.04-3.94,2.91-3.24,6.73,1.87,3.24,3.65,2.3,6.28,2.61,19.92,2.33,36.33,4.07,53.67-8.58-7.73-9.27-17.87-1.25-27.96-3.02l8.01-4.01ZM425.38,3291.36l31.65-39.33c-13.56-2.35-10.66,4.8-15.19,11.79-16.68,25.75-16.48,10.84-6.8-7.78-4.81-3.49-25.71,8.74-31.01,11.97l-10.97,76,32.32-52.65ZM438.9,1543l4.12-48.98c-10.92,12.2-29.47,51.4-29.87,67.24-.27,10.78,17.26,27.47,13.88,40.76-9.22,5.4-13.37-30.07-19.98-23.99.31,9.21-6.87,21.38-7.58,29.45-1.26,14.36,16,37.86,11.59,54.54,26.64-32.47,32.17-78.41,27.84-119.02ZM484.05,3018.02c-4.15-14.92-13.15-30.01-15.02-45.99-3.52-.71-4.06.94-5.59,3.49-6.25,10.46,14.17,24.46,11.59,36.49-10.24.46-9.96-12.24-17.96-15.99-13.75,32.26,23.92,43.5,19.97,73.99-4.72,5.6-15.78-31.16-23.98-27.98,2.25,9.09-2.95,20.8-1.98,28.8.62,5.11,13.64,26.89,7.96,31.18-4.56,3.44-9.26-12.04-10.98-13.98-7,7.14-8.8,24.22-21,23.98-3.79-3.91,19.68-38.87,13-47.98-8.1,6.35-13.43,18.48-24.75,18.25l-6.25,33.73c67.58,4.52,92.6-34.82,75-98ZM461.21,3757.7c0-12.15-9.85-22-22-22-12.15,0-22,9.85-22,22s9.85,22,22,22c12.15,0,22-9.85,22-22ZM442.63,3048.62c1.24-4.15,1.21-18.66,1.47-24.6.07-1.72.95-6.07-2.06-5.95-1.2.04-15.44,14.86-16.99,16.97-8.5,11.56-5.83,21.47-6,34.98,1.97,2.22,22.77-18.68,23.58-21.4ZM459.02,2506.03l-5.96,2.02-2.04-12.02c-2.47.21-3.36,2.75-4.37,4.61-3.61,6.64-16.77,30.57-18.27,35.73-4.06,13.98-.29,34.51-7.32,49.66,22.24-20.19,31.75-51.44,37.96-80ZM430.96,3014.95c3.23-2.91,11.61-6.66,13.01-8.99,3.68-6.16,2.28-22.61,7.07-29.91l-20.21,3.23c-7.37,14.96-11.47,29.86-9.77,46.75,4.85-1.98,6.25-7.78,9.91-11.07ZM437.05,3220.05c1.99,3.47,10.62,5.58,14.4,6.57,3.19.83,6.22,1.89,9.59,1.39-4.9-7.36-16.04-8.36-23.99-7.96ZM512.02,4102c17.31-18.21,19.56-36.37,14.47-60.42l-18.45-55.51c-2,.05-11.2,19.58-10.58,22.68,1.53,7.62,24.29,24.11,19.57,37.27-4.74,5.41-16.18-26.79-23.97-23.98-.96,7.87-6.35,19.62-6.12,27.11.23,7.47,32.4,35.03,22.08,42.87-4.83,3.68-15.09-26.03-23.97-23.98l-.02,39.98-7.92-1.99c1.42,4.16-11.62,18.87-14.06,15.99l7.97-35.98c-4.52,3.29-7.96,11.22-12.88,14.09-3.19,1.86-5.4,2.4-9.09,1.89,10.15-22.24,33.86-36.31,27.97-63.99-10.27,3.67-14.26,14.37-21,21.99-4.69,2.35-2.74-5.88-2.04-8.05,5.9-18.02,19.64-20.05,26.56-28.44,3.09-3.74,5.36-23.2,10.48-28.52-.6-2.24-2.62-.94-4.02-.02-16.73,11.05-40.39,51.42-44.99,71.01-7.43,31.64,2.36,53.26,3.03,84.01l66.97-48.01ZM488.86,347.2c-.65-4.68-7.25-21.6-11.15-22.91-20.15-6.76-10.05,28.58-10.6,38.81-.97,17.89-8.38,30.2-22.07,40.91,32.75,2.57,47.93-27.4,43.82-56.8ZM447.04,2964.01c5.25.87,12.26-1.29,11.98-7.98-3.92,2.45-9.82,3.21-11.98,7.98ZM461.63,2439.61c-1.46,9.4-6.94,32.38-6.68,39.36s6.21,14.8,4.11,23.04c3.01-.57,5.98-15.26,5.98-16.99v-55c-2.93-.13-3.04,7.21-3.41,9.58ZM503.02,1291.01l-7.86-4.21,1.86-26.77-30.66,34.47-7.3,49.53c17.99-14.63,32.81-32.66,43.96-53.02ZM513.08,2916.98c29.67,24.82,62.04,6.74,95.97,9.06v5.95c-17.55,3.23-34.96,7.52-53,6.03l-.99,3.97c8.59,2.38,19.16,11.89,27.44,13.59,18.2,3.72,55.13-6.12,68.6,9.4,1.52,1.75,2.58,2.25,1.93,5.05-19.37-1.65-38.21-8.1-57.98-5.98-1.3,4.68,1.22,3.38,2.55,4.56,4.5,4,21.62,18.12,25.95,19.92,11.37,4.71,29.01,1.44,37.47,14.54.83,4.19-1.87,3.29-4.82,2.83-7.71-1.18-14.86-6.68-23.15-5.85-2.3,2.09,11.79,13.47,3,17.94l-22.99-17.95,7.99,24.99c0,1.75-4.1,1.32-4.96.95-2.67-1.14-14.26-26.29-16.77-31.23-2.29-4.51-3.05-11.23-5.43-14.57-2.52-3.54-21.49-17.17-26.88-15.12,2.8,8.46,7.85,17.76,9.54,26.46,3.46,17.82-5.04,10.17-9.89-.1-3.99-8.43-9.03-33.91-13.7-38.3-1.77-1.66-22.98-12.01-23.91-11.07l11.79,35.22c1.28,3.79-2.35,3.46-4.54,2.52-9.62-4.12-17.02-39.36-21.76-49.25l-23.49-14.48c-.75.77,4.37,16.68,4.22,21.08-.14,4.16-5.49,1.96-4.1,5.74,36.76,56.01,93.19,79.9,148.89,111.15,3.44,1.93,19.54,16.39,16.57,5.44-.46-1.7-14.48-26.6-2.64-21.37,4.47,1.97,10.82,21.32,14.05,25.97,4.16-.12,3.48-60.66,2.97-66.99-6.43-78.77-69.24-74.42-127.87-96.13-26.74-9.9-56.27-23.24-77.11-42.89-2.59,3.41,2.57,12.84,5.08,14.92,5.49,4.55,15.52,1.35,17.91,6.1,3.03,6.03-11.67-.37-9.95,5.93.97,3.44,11.92,15.09,15.22,16.79,11.91,6.13,40.79-1.67,46.67,3.3,2.76,2.33,2.26,3.67,2.08,6.96h-29c-1.91.47-3.7,2.65-.95,4.95ZM465.06,2890.03c4.78,13.51,10.45,29.27,19.96,40-.93-17.25-4.71-30.55-19.96-40ZM524.49,3867.56c-1.13-.62-22.55-7.19-17.44-11.53,10.87-1.28,19.57,5.16,28.66,9.65l19.33-17.64c-27.91,4.95-55.88,5.6-84,2l27.45,29.68,28.54-7.73c.85-4.54-.26-3.17-2.54-4.43ZM517.01,1226.03c-3.82-3.72-3.95,3.28-4.49,4.39-1.97,4.02-7.14,13.25-7.47,16.8-.73,7.9,4.39,21.49,2,30.81,10.38-6.09,16.29-45.81,9.95-51.99ZM519.03,1216.98l3.01,3,2.99-2.98c.47-3.53.23-7.88-3.96-8.97l-2.03,8.95ZM533.07,1893.06c2.62-7.29,14.25-42.05,11.52-46.62-.57-.95-4.22-1.32-6.06-4.88-2.24-4.33-3.01-12.57-5.52-17.53-4.09-3.03-13.64,17.75-13.96,21.18-.62,6.78,3.61,18.4,3.96,25.84.67,14.27-.45,28.7.05,42.96l10.02-20.95ZM526.74,3239.07c-2.94-6.85-1.41-18.53-7.7-23.04v44s7.7-20.96,7.7-20.96ZM651.38,3471.36c54.17-90.51,2.2-146.56-67.36-201.31-9.72-7.65-4.82-.45-9.83.16-8.65,1.05-15.18-2.24-23.13-4.18,6.86,30.42,35.76,19.26,55.98,31.02.62,2.66-1.79,4.51-4.47,4.58-5.43.14-26.11-6.1-29.52-3.58,14.3,31.85,56.93,16.84,77.98,43.02-2.99,11.39-14.75-1.2-22-4.02-7.7-3-16.1-4.56-23.97-7.01l22.91,34.07c9.52,7.45,26.76,14.14,33.18,24.82,14.41,23.99-22.87-8.38-24.08-6.9,1.04,7.31,4.22,14.26,5.44,21.54.5,2.98,6.4,39.64-3.44,32.45-2.18-3.73.42-13.59-6.01-12l-.97,8.02-7.03,1.98c.21-7.59-.41-15.28.09-22.88.23-3.49,3.38-6.1,3.37-9.72-.06-14.69-13.83-41.06-23.83-52.02-1.78-1.95-1.79-4.29-5.63-3.35l-6.03,39.99c-.44.55-2.56-1.05-3.01-1.97-5.27-10.71,6.24-36.06,2.61-48.63l-32.59-35.39c-3.49,9.88-3.16,20.76-5.06,30.95-.61,3.24,1.37,3.49-3.91,3.04-5.86-12.63,3.92-31.15,1.65-42.52-.35-1.73-15.01-27.25-17.28-30.87-.71-1.14-3.04-5.61-4.37-4.6l-4.05,17.99-5.96-3.99c1.7,30.11,15.09,63.63,33.15,87.83,7.35,9.85,19.09,19.63,26.77,29.23,24.4,30.51,44.17,64.86,54.08,102.93,3.36,2.53,14.56-15.73,16.31-18.66ZM553.02,3870.03c-15.89,5.58-20.51,14.18-23.96,30,4.94-2.09,27.2-26.46,23.96-30ZM548.84,1830.83c1.43-5.09,5.2-43.94,4.28-47.48l-5.09-3.29c-1.59.06-12.41,26.79-12.49,29.31-.17,5.38,9.85,19.32,9.52,26.65,3.1-.38,3.13-2.89,3.78-5.19ZM535.06,3216.03c-.84,13.17,3.62,26.16,9,37.98l30.98,10-39.98-47.98ZM588.13,2127.93c8.94,13.84,38.03,19.58,40.9,38.08-4.11,4.18-26.48-16.25-31.02-17.97-4.02-1.52-3.04,2.49-2.95,4.94.92,25.92,28.42,36.63,35.04,58.99,1.34,4.52,2.82,14.62-5.11,9.12-3.17-2.2-6.81-15.44-11.1-18.9l-12.82-12.16c2.66,14.72.89,44.06-5.55,57.45-1.35,2.81-2.87,5.24-6.45,4.53l1-23.98c-7.43,6.6-2.32,25.32-15,23.98-2.83-31.41,28.25-52.37,11-83.98-8.57,6.67-8.84,27.01-13.44,33.51-1.52,2.14-6.31,3.01-7.34-.77-3.4-12.4,16.03-38.32,15.44-55.82-.29-8.62-8.7-21.63-9.69-30.92-5.14-.57-3.18-.01-4.03,2.91-.5,1.7-6.36,38.8-11.66,21.77-3.49-11.19,8.45-33.88,9.74-45.67.82-7.53.93-24.65,0-32.05-.35-2.77-1.1-5.83-3.98-2.96-22.34,70.81,2.7,143.03,13.71,213.25.62,3.95,1.06,28.79,5.26,28.7l53.83-58.13c21.24-27.25,20.29-48.57,8.13-79.8-3.1-7.96-21.5-45.24-25.99-50.16-2.11-2.31-6.24.76-10.84-.85-3.35-1.17-23.87-19.57-26.12-17.02,1.2,10.47,3.32,24.97,9.08,33.9ZM572.49,754.48c8.06-25.04,18.31-34.57,16.63-63.54-.33-5.7-2.66-11.11-2.1-16.91l-18.95,38.02c-12.44,27.16-9.66,54.98-7.01,83.96l11.44-41.53ZM585.06,649.05c-3.09-7.96-1.08-16.39-2.01-24.06-.34-2.81-1.12-5.73-3.98-2.95-1.72,10.59-12.72,22.47-15.09,31.93-.79,3.15-2.94,18.33-2.94,21.06v29s24.02-54.98,24.02-54.98ZM584.01,864.05c-4.74-14.97-2.84-29.35-.39-44.45,2-12.29,8.2-25.63,9.43-36.57,1.76-15.73-3.35-31.29-2.03-47-3.02.47-4.43,6.82-5.48,9.49-7.93,20.14-11.92,41.28-15.45,62.57l-7.03-.08c7.81,58.91,41.34,110.35,81.97,152.01-.43-18.32-.03-36.31,2.57-54.45,11.22-78.16,56.75-131.88,20.38-213.48-3.58-8.03-27.87-49.76-33.03-53.08-1.93-1.24-5.12.61-7.3-.53-5.05-2.64-30.48-22.21-34.6-18.44l4.26,31.72c12.43.79,51.62,22.95,51.76,35.3.03,2.66-1.27,3.36-3.03,4.92-5.77-7.72-38.6-34.11-46.01-33.91-3.83.1-1.64,4.38-1.59,5.49.3,7.82.99,15.61.6,23.47l1.98,4.02c19.4,11.99,41.35,27.2,50.02,48.96-4.04.87-5.34-.89-8.08-2.9-13.57-9.95-25.46-29.33-41.91-37.09v39c0,8.71,37.7,28.92,41.52,40.44.83,2.49,1.63,5.68-2.48,4.53l-34.07-25.95c-3.45-.46-3.1-.11-3.04,3.01.1,5.42,3.13,26.64,5.18,30.86,3.23,6.64,44.5,37.75,36.88,46.09-6.32.42-31.84-32.68-35.98-27.98-.03,17.84,6.59,34.21,15.98,49l-7.97-1.01,1.97,26.01-5.92-.04-16.09-71.97c-3.16.42-5.98,11.51-5.98,13v38s-7.03,1.03-7.03,1.03ZM578.95,600.93c.55-8.44-5.06-28.78-8.92-36.9l-4.97,61.99c4.39-3.78,13.56-20.04,13.89-25.09ZM609.03,2100.02l-26.02-65.97c-2.96-.51-2.49,3.76-2.98,5.96-2.06,9.18-6.11,34.6-.42,41.47l29.41,18.55ZM589.06,580.03l5.05,29.93,26.93,12.05-31.98-41.98Z" style="fill: #9d8042;"/>
    <path d="M133.03,1544.01c33.92,6.18,62.18,27.15,94,38-14.87-17.55-68.99-44.71-90.99-42.03-2.75.33-5.95,1.28-3.01,4.03Z" style="fill: #9d8042;"/>
    <path d="M221.03,1620.04l-50.65,26.32-5.34,5.64c9.56.43,20.11-4.12,28.64-8.34,2.81-1.39,31.94-19.3,27.35-23.63Z" style="fill: #9d8042;"/>
    <path d="M163.04,1604.02c18.84,2.02,40.87,3.3,59.37-1.72,3.43-.93,5.57,1.44,4.62-4.26-20.2.34-40.97-.61-61.01,2.02-3.59.47-3.28-.85-2.98,3.96Z" style="fill: #9d8042;"/>
    <path d="M197.03,2772.02c2.24-2.14-9.98-13.35-12.12-14.86-11.17-7.95-43.55-19.85-57.15-20.92-4.23-.33-7.77-1.35-10.69,2.8.04,2.43,39.87,13.43,45.93,16.03,4.91,2.11,32.13,18.76,34.02,16.96Z" style="fill: #9d8042;"/>
    <path d="M141.05,2836.02c11.19,1.18,22.78-3.41,32.75-8.23,2.5-1.21,25.41-13.86,21.23-17.75l-50.08,20.98-3.9,5Z" style="fill: #9d8042;"/>
    <path d="M141.04,2786.03v3.97c1.92-.51,4.26,2.03,5,2.03h53s.01-3.99.01-3.99c-3.75,1.68-9.2-2.01-11.01-2.01h-47Z" style="fill: #9d8042;"/>
    <path d="M51.02,2202.01c4.7-11.67-2.63-21.18-14.94-21.99l-2.07,4.02c10.6,2.71,8.07,16.04,17.02,17.98Z" style="fill: #9d8042;"/>
    <rect x="29.5" y="2210.84" width="5.07" height="6.36" transform="translate(-689.82 120.74) rotate(-18.2)" style="fill: #9d8042;"/>
    <path d="M251.02,2342.02c8.47-1.71,21.63,2.68,21.81,12.96.1,5.86-9.09,14.96,4.29,12.13,5.87-7.09,5.91-20.86-1.02-27.14-6.7-6.07-27.19-9.67-25.07,2.05Z" style="fill: #9d8042;"/>
    <path d="M253.05,2366.04v2.96c3.35,8.59,19.27-3.4,0-2.96Z" style="fill: #9d8042;"/>
    <path d="M37.12,1929.93c8.97,0,18.78,3.09,19.91,13.28.36,3.25-4.79,20.54,6.09,13.89,4.07-2.49,4.57-13.64,4.02-18.15-1.57-12.79-18.4-22.15-29.8-16.62l-.22,7.6Z" style="fill: #9d8042;"/>
    <path d="M45.03,1960.02v-5.98c-4.18-.25-7.49-.76-9.95,2.99,2.46,3.75,5.77,3.24,9.95,2.99Z" style="fill: #9d8042;"/>
    <path d="M223.05,1914.01c3.07,2.29,7.08-4.78,7.63-7.47,1.7-8.47-5.79-19.21-13.52-21.63-6.29-1.97-18.67-3.01-14.14,6.11,5.74,2.16,13.12,1.45,16.95,7.08,2.72,3.99,2.18,15.22,3.09,15.9Z" style="fill: #9d8042;"/>
    <circle cx="211.98" cy="1920.01" r="4.55" style="fill: #9d8042;"/>
    <path d="M259.05,2000.02c5.34-.36,16.46.97,18.98,6.02,2.08,4.17-.2,11.19,5.96,13.49l4.84-1.74c2.51-11.03-3.1-23.87-14.93-25.67-6.41-.98-14.54-.32-14.85,7.9Z" style="fill: #9d8042;"/>
    <path d="M265.04,2028.02h7.98s0-2.96,0-2.96c-2.1-3.14-4.28-3.49-7.97-3.02v5.98Z" style="fill: #9d8042;"/>
    <path d="M329.05,2112.04l7.81-.19c5.55-18.88-8.94-37.05-25.77-20.82l16.15,5.8,1.81,15.21Z" style="fill: #9d8042;"/>
    <g>
      <path d="M319.05,3930.02c3.59,3.6,21.17-15.58,25.98-16.98-2.43-6.3-11.94.96-15.04,2.94-4.98,3.18-11.98,6.83-10.94,14.04Z" style="fill: #9d8042;"/>
      <path d="M259.03,4042.02c4.52-4.91-15.79-19.43-19.39-21.59-11.37-6.82-25.31-11.67-38.59-12.39-.86,4.12,2.05,4.63,4.61,6.37,7.16,4.87,18.98,8.06,27.42,12.58,3.59,1.93,24.12,17.02,25.95,15.03Z" style="fill: #9d8042;"/>
      <path d="M254.04,4058.03c1.67-.48,3.65-3.84,2.99-5.99-18.61-4.06-39.16-1.63-57.02,1.98l2.02,4h52Z" style="fill: #9d8042;"/>
      <path d="M211.05,4088.02c4.16-.01,8.42.49,12.54-.44,4.85-1.09,37.52-19.49,31.44-25.54-8.71-.35-14.14,7.51-21.39,11.59-6.05,3.41-12.7,5.91-18.66,9.42-2.58,1.52-5.04-.36-3.94,4.96Z" style="fill: #9d8042;"/>
      <path d="M113.02,3672.02c15.23-1.05,24.19,6.18,22.03,22,2.83.6,3.26-.24,4.91-2.06,11.77-13.05-10.96-35.15-25.74-26.1l-1.19,6.16Z" style="fill: #9d8042;"/>
      <path d="M123.03,3704.02c1.18-7.38-3.18-8.74-9.98-7.98-1.18,7.38,3.18,8.74,9.98,7.98Z" style="fill: #9d8042;"/>
      <path d="M181.05,3588.02c22.74-3.2,5.51-37.48-12.71-31.75l-3.3,4.74c13.99,7.07,21.85,9.15,16,27.02Z" style="fill: #9d8042;"/>
      <path d="M173.03,3588.02c3.81-3.54-8.01-8.95-7.95-2.99.02,2.06,6.62,4.23,7.95,2.99Z" style="fill: #9d8042;"/>
      <path d="M239.12,3825.91c15.28,2.76,18.14,3.86,18.88,20.15,7.73,6.86,9.81-3.84,9-10.84-1.51-13.1-16.14-20.97-27.83-15.04l-.04,5.73Z" style="fill: #9d8042;"/>
      <circle cx="243.98" cy="3854.01" r="4.55" style="fill: #9d8042;"/>
      <path d="M311.03,3532.02c21.64-1.33,15.32,10.67,14.02,26,17.41.27,14.8-30.29.56-33.55-7.17-1.64-16.19-1.69-14.58,7.56Z" style="fill: #9d8042;"/>
      <path d="M305.08,3553.03c0,3.78,9.92,3.78,9.92,0s-9.92-3.78-9.92,0Z" style="fill: #9d8042;"/>
      <path d="M427.05,3750.02c11.81-5.09,19.45,1.51,18,14,7.21.38,6.73-7.41,5.57-12.55-2.55-11.39-13.21-11.03-22.41-7.62l-1.16,6.17Z" style="fill: #9d8042;"/>
      <path d="M433.03,3772.02c3.02-3.02-5.95-8.53-5.95-2.99,0,1.32,4.8,4.14,5.95,2.99Z" style="fill: #9d8042;"/>
    </g>
    <g>
      <path d="M148.85,937.75c-.74,1.3-12.74,4.61-9.8,12.27,5.31,5.29,15.64-15.32,15.82-18.94,1-19.6-31.74-32.14-41.91-14.08l3.12,5.04c9.77-5.08,21.79-7.24,28.69,3.26,1.24,1.89,4.86,11.1,4.08,12.45Z" style="fill: #9d8042;"/>
      <path d="M155.53,752.48c-11.04,9.59,10.26,5.34,12.47,5.4,15.99.45,12.93,15.97,17.01,19.17,6.83,5.36,6.33-8.76,4.17-14.18-4.67-11.71-24.71-18.15-33.65-10.39Z" style="fill: #9d8042;"/>
      <path d="M167.05,792.02c3.26,1.48,11.95-2.3,11.95-4.99,0-4.71-15.31-4.7-11.95,4.99Z" style="fill: #9d8042;"/>
      <path d="M383.05,974.02c17.96-3.16,22.2,5.99,28.99,19.97,13.37-11.54-1.58-29.69-16.09-30.06-6.54-.17-14.31,2.13-12.9,10.09Z" style="fill: #9d8042;"/>
      <polygon points="389.05 1008.02 401.03 1008.02 397.76 1002.25 392.31 1002.25 389.05 1008.02" style="fill: #9d8042;"/>
      <path d="M289.04,1078.02c15.33-1.65,22.09,2.43,22.95,18.05,1.94,2.67,4.28,2.82,6.1.03,3.98-6.13-2.19-20.39-8.28-23.84-6.65-3.77-23.07-5.17-20.77,5.77Z" style="fill: #9d8042;"/>
      <path d="M303.02,1106.01c3.89-5.52-11.85-8.67-11.95-2.99-.06,3.68,9.89,5.91,11.95,2.99Z" style="fill: #9d8042;"/>
      <path d="M271.53,616.49c-2.35,2.04-2.79,6.01.54,7.53,19.85-6.58,20.96,3.02,27.34,16.64,3.29,7.02,7.35-1.88,7.56-5.75.92-16.99-24.02-28.34-35.44-18.42Z" style="fill: #9d8042;"/>
      <polygon points="285.05 652.01 293.78 652.16 295.03 646.04 285.05 652.01" style="fill: #9d8042;"/>
      <path d="M181.05,1100.02c15.8-1.44,24.06.87,24.99,18.01,7.31,10.75,15.13-13.28,1.73-23.73-7.78-6.06-27.48-7.65-26.72,5.72Z" style="fill: #9d8042;"/>
      <path d="M199.05,1128.02l-1.18-6.16c-4.64-1.62-9.36-3.76-12.82,1.2-1.29,5.98,10.42,5.35,14,4.96Z" style="fill: #9d8042;"/>
    </g>
  </g>
  <g>
    <path d="M859.91,285.04l70.16-50.84c43.08-25.1,90.84-37.93,139.82-46.18,6.17-8.1,8.22-16.68,17.35-22.65,32.43-21.21,70.96,9.68,56.48,46.48-12.97,32.97-70.45,27.67-71.88-10.75-54.25,7.39-107.55,26.64-151.9,58.94,27.04,27.39,75.8,37.05,112.76,30.79,23.22-3.93,17.23-6.36,31.17-18.83,21.17-18.95,57.12-9.97,63.15,18.92,11.99,57.44-75.73,64.9-75.12,8.11-50.96,10.67-101.94,6.89-142.11-29.03l-3.93-.21c-48.57,34.73-88.41,80.48-128.03,124.26-.04,5.79,20.43,15.78,26.1,17.97,36.09,13.94,78.36,9.16,114.83-1.13,4.13-1.16,18.96-5.08,21.11-6.89,5.14-4.3,8-27.94,23.05-38.95,44.16-32.32,90.38,33.9,49.04,65.04-22.71,17.11-49.33,6.1-65-14.37-57.06,20.91-128.92,29.52-179.76-10.47l-91.28,89.77c24.04-2.89,47.64-11.18,71.59-15.39,84.31-14.84,161.83-2.95,244.78,12.04,84.36,15.24,135.97,45.81,213.46-11.8,66.86-49.71,57.45-127.66,96.57-193.43,13.12-22.07,33.57-48.05,50.58-67.42,6.87-7.82,22.79-26.67,30.04-31.95,12.7-9.26,13.91,4.69,16.84,15.13,11.55,41.17,22.93,95.47,20.25,137.95-4.66,73.6-65.7,138.91-124.09,177.91l43.52-10.48c111.53-38.73,205.83-123.74,238.64-239.26-49.05-23.97-78.19-100.23-74.13-152.23,3.38-43.21,27.9-79.96,68.97-41.07,20.37-34.96,61.56-20.61,71.02,14.03,45.14-32.93,59.92,7.39,55.73,48.76-3.49,34.45-38.52,103.15-67.89,122.11-11.96,7.72-23.27,10.05-36.91,13.09-8.19,25.58-18.54,50.29-30.96,74.02,10.77-4.41,19.97-11.54,30.64-16.34,33.13-14.9,72.5-18.58,107.79-28.21,8.81-2.4,34.71-13.49,40.71-13.4,6.78.1,5.11,9.98,4.38,14.49-6.42,39.32-46.32,100.2-79.7,122.29-59.09,39.12-118.49,20.29-181.93,32.07-29.13,5.41-52.25,22.5-75.89,39.09,50.81-6.96,97.12.18,145.99,13.03,41.72,10.97,84.3,28.59,125.57,38.43,7.35,1.75,17.53,5.08,24.89,4.18,7.82-.95,26.15-10.32,33.58-14.58,43.01-24.67,59.67-73.38,95.93-106.07,33.13-29.86,95.73-56.37,138.48-69.52,8.62-2.65,33.57-12.69,33.45,3.25-10.95,40.6-8.16,85.28-29.57,122.63-35.93,62.69-140.74,77.72-206.34,78.68,3.39,5.06,13.69,6.11,19.59,7.39,50.2,10.87,111.99,17.87,162.48,7.66,95-19.21,239.99-144.65,257.39-242.61,2.65-14.91,5.72-25.87-4.42-38.5-14.87-18.52-45.93-25.68-66.05-11.97-17.04,11.61-3.5,18.66-2.93,33.11.83,20.85-14.23,38.07-35.37,38.75-44.05,1.41-49.73-66.89-3.13-71.39,6.41-.62,13.4,2.23,17,1.26,2.53-.68,13.3-11.54,18.03-14.14,24.23-13.33,57.49-10.3,77.42,9.44l3.93-2c-8.24-42.77-29.55-91.98-64.98-118.98-32.88-25.05-79.75,17.08-97.41,44.49-3.87,6.01-13.84,25.21-14.74,31.4-.78,5.34,7.16,20.16,7.17,29.06.06,41.44-58.12,51.7-72.96,14.99-8.74-21.61,5.02-49.53,28.46-53.5,7.15-1.21,21.87,2.32,24.55.61,2.41-1.54,19.95-34.36,25.15-40.93,17.4-22,39.55-35.8,64.79-47.17-63.38-38.4-143.73-15.66-191.82,36.27,3.28,6.87,9.97,10.94,13.49,18.09,17.78,36.12-23.17,72.58-56.62,48.62-22.75-16.29-19.32-55.29,6.51-65.46,7.06-2.78,14.22-1.37,19.59-4.41,3.77-2.13,9.35-12.02,13.82-16.18,45.45-42.24,101.04-59.78,163.05-49.95-10.6-44.38-56.39-68.25-100.01-61.01-5.06,2.53-3.34,9.95-5.5,14.5-17.45,36.73-75.81,26.76-76.64-16.49-.88-46.16,63.5-56.42,76.37-13.21,48.27-3.86,91.18,13.18,113.54,57.47,3.07,6.09,4.85,17.67,8.86,22.15,5.28,5.89,41.09,22.81,52.05,30.94,31.09,23.06,54.14,55.91,68.33,91.65,3.6-1.64,6.38-22.04,6.99-27.01,5.29-43.55-.53-90.6-18.29-130.65-48.7,8.27-69.72-57.11-24.42-76.06,34.45-14.41,65.24,21.03,50.22,54.22-3.06,6.77-11.54,12.3-11.62,18.44-.1,8.4,11.28,38.33,13.55,50.67,5.05,27.47,7.64,57.51,4.35,85.18-1.99,16.77-10.4,37.51-11.77,52.22-1.27,13.61,2.73,32.48,2.09,48.09-.47,11.62-3.37,25.1-4.06,36.92,25.94-28.23,52.64-55.78,87.01-73.97,1.6-14.98.35-28.65,11.89-40.11,30.84-30.61,84.28,5.81,60.71,48.72-8.53,15.53-27.31,20.41-44.18,16.91-9.07-1.88-18.45-15.08-25.94-13.2-5.21,1.3-41.47,30.93-47.54,36.63-14.59,13.69-30.32,33.32-42.8,49.2-23.12,29.43-43.68,61.21-65.17,91.81,30.85-9.65,62.7-18.39,95.02-21.96,41.43-4.57,80.77,8.12,121.41-4.59,85.48-26.74,122.95-100.7,188.62-153.38,21.86-17.54,67.83-49.93,93.5-58.5,15.09-5.04,11.94,7.65,11.52,19.53-1.8,51.92-9.21,106.71-41.29,148.7-39.16,51.26-78.64,72.06-142.05,81.96-5.52.86-15.78-1.61-18.73,4.23,57.95,12.05,116.05,4.02,171.98-12.98,75.49-22.95,116.58-65.6,132.64-143.36,5.77-27.95,8.13-56.96,7.17-85.44-56.86-9.95-91.25-75.91-82.91-130.29,2.7-17.6,13.25-38.63,34.03-37.99,7.71.24,13.38,6.19,20.92,5.96,12.46-38.23,57.54-36.38,71.27.08,22.46-12.9,48.05-5.96,52.4,21.53,7.49,47.45-24.49,115.72-68.13,136.89-4.38,2.12-12.17,1.46-14.06,6.08-1.03,33.51-3.72,66.51-9.31,99.55,29.43-35.32,59.17-67.68,98.15-92.83,7.81-5.04,59.52-35.16,64.04-34.19l5.46,4.35c-2.18,73.37-25.4,164.21-105.66,185.69-41.16,11.02-91.16-4.03-118.01,36.96,51.28-11.42,103.33-11.62,154,3.02,19.85,5.74,38.02,15.79,57.99,21.01,1.33-18.04,17.35-37.87,32.6-46.43,26.19-14.7,57.41-10.6,86.16-13.84,11.51-1.29,57.65-11.98,63.41-10.88,11.14,2.12,4.58,39.62,2.5,48.79-11.18,49.14-43.06,63.18-91.4,58.1-16.12-1.69-31.58-9.98-46.72-13.29-2.01-.44-7.02-2.02-6.51,1.51,41.11,19.98,85.34,47.44,133.06,44.1,41.47-2.9,73.94-32.09,108.93-50.1-9.39-17.65-17.76-31.16-15.75-52.73,6.56-70.34,109.91-134.68,159.77-178.21,15.53-13.56,30.27-28.56,44.86-43.13,11.6-6.88,13.35,5.96,16.09,14.12,9.48,28.15,12.17,67.05,6.04,96.01-17.4,82.17-98.08,80.12-151.05,128.95-2.14,1.98-14.13,12.82-11.96,15.02,40.19-7.9,77.31-3.11,116.42,6.58,56.03,13.88,85.33,25.69,146.65,21.51,9.22-.63,23.24-.44,24.74-11.19,5.09-36.52-20.55-78.68-22.14-115.56-1.39-4.04-11.73-5.04-16.36-7.64-37.95-21.36-17.72-78.29,23.74-73.74,33.32,3.66,45.71,51.32,18.82,70.92-5.34,3.89-14.36,4.07-14.05,12.09,5.1,32.42,19.59,63.72,24.16,96.07.9,6.36-2.46,14.41,3.01,18.93,46.28-25.16,89.49-70.13,107.98-119.98,3.46-9.33,13.56-35.1,7.02-42.96-28.49-19.79-59.03-41.86-81.93-68.06-5.14-5.88-21.9-31.28-24.91-33.09-9.08-5.45-22.41,2.15-37.2-10.8-27.56-24.13-9.46-71.67,28.78-68.94,27.58,1.97,44.93,34,32.41,58-4.21,8.07-13.47,10.25-10.09,19.77,1.04,2.94,16.64,22.31,19.94,26.13,22,25.46,51.34,45.69,78.03,65.94,2.99-1.93,2.72-3.86,3.07-6.89,5.1-43.17-3.09-87.65-12.44-129.71-2.47-4.73-12.28-4.35-17.59-6.41-40.97-15.82-32.83-80.23,12.96-81.11,47.05-.9,56.87,61.6,17.29,81.34,17.03,60.39,24.96,126.52,3.7,186.8,3.89,1.02,3.87-1.53,5.65-3.33,6.3-6.4,12.21-15.4,18.3-21.7,21.16-21.86,46.15-42.78,71.67-59.33-3.98-20.97-.44-44.14,20.58-54.43,51.91-25.41,84.94,54.25,33.77,73.77-27.58,10.53-36.16-8.04-46.85-6.98-4.28.42-32.82,21.73-38.06,26.08-44.87,37.26-80.54,89.72-117.05,134.95.69,2.11,4.82.92,6.73.73,12.85-1.25,59.1-9.28,67.17-16.83,6.19-5.79,4.83-11.87,16.75-17.26,58.22-26.29,70.46,82.57,3.29,65.4-18.35-4.69-20.52-25.42-29.36-26.68-26.75,3.31-62.74,5.35-86.69,18.52-10.59,5.82-21.38,17.81-33.28,24.72-10.21,5.93-21.38,10.75-32.61,14.41l2.03,2.94c77.75,25.78,149.91,68.93,234.94,63.02,5.26-.37,25.73-2.88,28.94-5.06,3.94-2.68,4.46-11.8,5.44-16.56,18.96-92.72-50.62-151.96,44.85-225.15,12.51-9.59,26.69-18.39,41.07-24.93,8.12-3.69,36.8-18.95,36.82-3.37-4.19,22.24-11.27,47.47-12.18,70.01-2.39,59.47,17.17,90.98-16.31,149.7-3.15,5.53-11.93,14.75-13.6,18.42-.48,1.06-.38,3.39.97,2.96,63.11-35.04,90.49-114.54,106.87-181.13,5.12-20.84,10.47-43.96,11.26-64.95-41.21-16.7-60.18-65.8-52.2-108,4.24-22.44,23.64-34.55,44.94-24,7.13-23.34,44.69-25.57,55.9-4.67,1.85,3.44,2.09,10.42,4.12,11.88,5.18,3.7,16-3.47,27.2,6.8,30.92,28.34-8.43,96.62-38.43,113.73-9.24,5.27-18.35,4.71-25.61,10.39-8.34,42.06-16.89,84.49-30.97,125.03-1.99,5.74-17.42,39.2-16.05,40.93,20.17-14.95,41.83-29.45,67.19-33.79,22.69-3.88,64.52-.42,87.61,3.97,29.48,5.6.03,24.15-8.76,34.88-29.97,36.6-38.81,78.53-97.04,74.9-28.78-1.8-56.85-21.31-85.8-17.73-14.94,1.85-33.81,21.09-48.63,29.37-61.16,34.16-141.71,37.66-209.01,21.82-53.74-12.65-102.61-43.26-155.16-56.84-31.81-8.22-62.76-6.26-95.18-12.82-34.56-6.99-68.17-21.09-102.84-27.16-48.42-8.48-103.65-2.3-142.41,29.39,29.93-4.35,59.33-1.31,88.43,6.59,66.28,18,90.37,67.41,149.63,94.37,8.55,3.89,55.4,18.43,57.01,21.01,3.99,6.42-3.76,12.01-8.03,16.1-29.24,28.05-77.83,43.54-118.02,39.92-77.73-7-114.55-109.91-183.66-142.34-6.78-3.18-23.52-9.76-30.43-9.69-5.37.06-23.1,8.94-30.96,11.04-52.99,14.16-98.81-7.38-144.97-31.01l-3,1.01c38.64,37.07,54.8,90.95,85.16,132.84,7.11,9.81,19.52,15.58,16.96,30.95-1.44,5.22-79.32,7.9-89.11,7.2-95.83-6.86-89.73-70.52-116.67-141.33-30.53-80.25-57.97-106.89-146.72-88.02-58.24,12.38-107.84,38.48-168.88,45.12-88.73,9.66-139.02-14.8-219.9-35.6-57.38-14.76-116.23-9.69-171.88,9.82-41.27,14.47-72.11,43.01-106.97,68.01,55.83-13,107.25,2.3,161.58,11.44,22.67,3.81,46.54,5.24,68.86,9.14,16.57,2.9,23.32,5.24,10.61,21.49-12.54,16.03-49.38,48.87-66.1,61.9-76.62,59.76-178.49-67.82-259.79-57.78-7.94.98-18.02,5.76-26.75,7.24-136.9,23.15-280.27-39.03-409.98-72.84-94.44-24.62-141.62-12.9-232.79,8.07-178.6,41.09-342.7-52.34-520.62-42.62-66.12,3.61-132.83,28.14-193.73,52.27l-21.28,11.69c20.89-1.83,42.07-.93,62.97-2,93.5-4.78,176.23-19.32,260.85,33.19,15.66,9.72,68.09,49.41,77.03,62.96,11.63,17.62-21.45,9.53-29.92,9.77-107.12,3-177.17,72.97-284.28,14.45-42.38-23.16-116.76-98.93-163.45-94.12-17.15,1.77-37.71,9.18-56.46,11.52-48.61,6.07-106.28,5.45-152.11-13.38-127.57-52.43-52.48-228.01,72.96-192.96,70.55,19.71,67.28,120.85-8.72,122.67-19.51.47-59.04-11.51-47.84-38.03,9.72-23,56.94,1.28,71.65-18.55,17.72-23.9-11.63-52.32-35.92-55.27-100.76-12.21-152.41,131.31-37.3,171.3,86.93,30.2,198.72,2.84,278.68-36.79-24.16-69.17-8.02-141.96,17.79-207.99.75-8.29-6.99-11.33-10.35-19.35-16.98-40.58,34.1-73.86,63.68-44.68,23.22,22.91,11.03,63.61-20.76,68.81-6.07.99-17-1.92-19.63.24-25.57,60.97-40.27,131.79-18.87,196.24,10.46-6.9,26.57-11.2,36.48-17.97,1.84-1.26,2.6-4.1,4.78-5.65,23.92-17,47.15-35.43,66.3-57.78-5.2-72.54-9-145.14,14.93-215.09,2.59-7.56,12.04-23.65,12.55-29.3.45-4.99-7.34-17.99-7.12-27.12.8-33.5,39.99-51.33,66.1-30.12,28.15,22.87,12.05,71.17-25.04,71.18-9.11,0-16.3-5.25-24.93-6.1-1.04,5.99-4.01,11.3-6.1,16.92-24.83,66.7-22.69,137.24-17.94,207.04,29.55-26.1,54.91-56.46,81.93-85.05,6.92-7.32,40.93-38.09,43.01-42.98,3.19-7.51-1.72-29.73-.93-40.94,1.36-19.1,9.12-42.88,18.36-59.64,4.85-8.79,28.17-36.67,29.2-40.92,1.74-7.13-2.65-11.35-3.42-17.63-4.44-35.98,28.38-62.79,61.63-45.64,38.22,19.7,20.37,84.93-24.57,80.6-4.97-.48-23.35-8.15-25.24-6.94-15.69,19.18-30.57,40.54-37.42,64.71-1.04,3.68-4.57,16.88-4.57,19.43v33ZM2227.33,39.82c0-15.31-12.41-27.72-27.72-27.72s-27.72,12.41-27.72,27.72,12.41,27.72,27.72,27.72,27.72-12.41,27.72-27.72ZM1968.52,47.39c0-14.98-12.14-27.12-27.12-27.12s-27.12,12.14-27.12,27.12,12.14,27.12,27.12,27.12,27.12-12.14,27.12-27.12ZM2799.92,145.03c-5.84-6.01,13.4-45.8,13.9-53.09,1.54-22.36-25.12-39.94-42-21.98-16.48,17.55-.96,34.16.14,54,.39,7.11-1.7,27.16-9.69,13.7-3.74-6.3-3.57-23.96-6.83-33.17-7.99-22.6-31.15-29.05-41.35-4.25-19.04,46.31,29.06,138.45,85.86,123.86,32.95-8.46,63.89-70.25,66.01-101.99.79-11.77.3-32.27-12.58-37.55-17.23-7.06-28.09,11.85-33.84,25.12-1.6,3.7-11.38,43.83-19.63,35.35ZM1627.72,160.83c-17.73,3.45-7.23-23.48-3.85-32.83,3.03-8.4,10.29-17.28,10.12-25.85-.45-23.47-27.7-48.51-47.12-25.15-11.69,14.06-4.24,14.8-1.89,27.97,1.5,8.41,7.5,49.84-2.09,52.06-3.39.79-4.03-2.7-4.96-5.01-4.61-11.58-4.64-36.99-8.61-51.39-8.86-32.1-39.46-41.13-48.51-3.69-10.62,43.96,7.67,110.06,40.11,142.08,52.92,52.25,104.76-30.14,119.91-76.07,5.5-16.68,16.61-66.64-6.84-73.08-23.62-6.48-42.12,54.97-46.26,70.96ZM3677.37,95.51c-42.48,7.85-20.22,78.31,22.64,54.63,29.73-16.43,12.39-61.1-22.64-54.63ZM963.18,131.48c0-17.6-14.27-31.87-31.87-31.87s-31.87,14.27-31.87,31.87,14.27,31.87,31.87,31.87,31.87-14.27,31.87-31.87ZM800.21,169.09c0-16.38-13.28-29.65-29.65-29.65s-29.65,13.28-29.65,29.65,13.28,29.65,29.65,29.65,29.65-13.28,29.65-29.65ZM3601.3,176.24c0-15.08-12.22-27.3-27.3-27.3s-27.3,12.22-27.3,27.3,12.22,27.3,27.3,27.3,27.3-12.22,27.3-27.3ZM4069.92,205.03c-2.59-11.71,6.45-21.68,6.08-32.93-.6-17.92-18.15-28.89-32.17-16.14-11.56,10.51-2.94,20.21-1.94,32.1.75,8.85-.49,18.11.03,26.99l-9.79-.23c-3.01-10.85-2.23-23.04-5.13-33.86-8.66-32.34-29.28-12.69-32.57,11.6-8.86,65.56,62.49,124.4,107.09,47.09,7.62-13.2,19.76-53.62,2.37-61.57-21.84-9.98-17.47,27.18-33.96,26.95ZM1133.39,196.36c0-13.7-11.11-24.81-24.81-24.81s-24.81,11.11-24.81,24.81,11.11,24.81,24.81,24.81,24.81-11.11,24.81-24.81ZM1901.45,189.41c-31.31,3.53-32.76,54.77,3.39,53.72,34.08-.99,30.69-57.56-3.39-53.72ZM1385.91,239.04v-29l-4-2.02c-37.82,39.79-73.38,84.14-90.92,137.1-26.53,80.06-22.68,114.05-102.47,161.53-3.31,1.97-22.24,10.2-22.62,11.41-1.43,4.47,1.88,2.55,4.13,2.12,12.28-2.33,67.19-18.52,71.45-28.57,1.85-4.37,2.05-26.38,7.43-26.53,5.97,3.12,1.42,18.16,3.01,19.95,16.57-5.96,24.25-12.26,21.82-30.84-.52-3.98-8.05-19.63-.8-21.14,8.31-1.73,7.75,25.76,11.96,25.94l22.11-26.11c-2.41-9.85-20.87-33.82-19.1-42.81.28-1.43,3.52-4.33,4.96-1l20.05,35.92c2.55-.05,18.9-31.76,19.14-37,.61-13.36-23.62-35.02-22.12-50.96,11.37,8.12,16.41,26.19,25.07,35.91,1.81,2.04,2.05,2.97,3.94.12,1.62-2.44,6.88-19.69,6.81-22.81-.36-17.32-20.42-36.05-15.82-55.22l21.96,38,10.06-42.45c8.13-3.6,6.78-12.38,11.03-17.48,4.88-5.86,10.37-4.26,8.55,4.49-1.41,6.78-19.08,41.02-15.6,45.44,14.2-5.53,21.38-25.43,35.97-27.99,5.47,5.43-32.85,40.93-40.11,43.4l-11.87,36.58c10.23,1.36,41.1-34.8,45.98-29.98-.47,9.95-13.22,19.86-21.05,25.93-6.97,5.4-27.19,14.95-29.89,18.11-4.26,4.99-8.36,19.84-13.05,25.93l48.98-20c1.86.08,1.26,3.6.79,4.79-4.7,11.86-45.84,21.5-55.69,28.31-2.21,1.53-19.09,23.63-20.05,25.96-1.11,2.7-.02,3.16,2.62,2.64,5.55-1.09,39.21-8.3,40.97-7.16.94.6-.36,4.16,1.38,3.48,30.33-32.21,54.21-76.03,56.99-121.02,1.6-25.94-7.59-71.71-14.59-97.38-.56-2.05-.5-6.06-3.36-5.58l-4.03,9.99ZM3865.7,248.47c0-14.98-12.15-27.13-27.13-27.13s-27.13,12.15-27.13,27.13,12.15,27.13,27.13,27.13,27.13-12.15,27.13-27.13ZM2877.91,321.04h38c-.56,8.26-18.07,9.25-25.03,9.97-8.32.86-16.73-1.2-25.03.97-11.01,2.88-21.08,19.06-31.93,23.1l.99,3.97c7.26,2.66,44.94-5.93,44.95,2.99-7.71,9.01-23.82,7.76-35.05,7.09-17.56-1.04-26.9-7.99-42.87,6.91-.09,3.34,20.22,5.36,23.98,7.98,2.93,2.03.68,4.6-1.11,5-13.77,3.13-37.01-17.06-46.89,7.06-.54,6.1,2.16.96,2.97.96h36c13.15,0,32.74-5.4,44.75-11.25,55.97-27.3,73.86-95.4,78.24-152.74-2.73-2.88-45.39,24.15-51.03,27.95-16.51,11.12-75.48,57.42-78.87,75.13-1.16,6.08.22,14.26-2.08,20.9,36.69-4.27,28.51-44.44,49.02-65.98l4.98,3.03c.4,2.01-12.25,26.2-13.62,32.36-.56,2.52-1.25,6.17,2.58,4.58,1.37-.57,21.19-18.56,21.92-20.09,5.33-11.15,2.77-37.15,19.09-41.88l-5.98,25.98c4.71,4.83,21.44-27.91,29.98-23.98,6.47,6.36-33.64,43.88-37.99,49.99ZM2382.07,263.09c0-15.1-12.24-27.34-27.34-27.34s-27.34,12.24-27.34,27.34,12.24,27.34,27.34,27.34,27.34-12.24,27.34-27.34ZM3407.9,235.05l-41.97,35.12c9.31,11.82-5.87,24.47-8,36.87,9.99-.96,35-38.21,38.99-37.95,3.1.2,3.07,5.18,2.12,8.05-3.07,9.23-14.54,19.11-19.13,27.87,5.62,4.4,31.66-20.24,37.01-23.97,2.99,13.59-16.45,25.46-26.97,31.03-11.55,6.11-24.02,7.96-34.68,13.32-10.87,5.47-23.84,17.67-33.36,25.62,16.7.89,33.4-1.23,49.56-5.42,10.12-2.62,21.83-9.51,30.35-11.7,3.56-.92,3.66-.9,6.05,2.14-15.08,14.58-38.36,21.44-58.99,22.97-11.28.84-29.28-2.13-39.09.91-5.88,1.82-37.53,31.59-33.87,35.11,24.82-5.52,50.38-10.05,75.88-9.8l1.1,5.79c67.28-22.51,83.12-88.47,67-151.99-4.69-.98-3.21.63-4.47,2.58-.86,1.33-9.21,22.21-13.51,17.41l5.98-23.98ZM1999.33,245.46c-27.54,6.3-18.55,57.25,13.09,51.16,30.9-5.94,27.72-60.5-13.09-51.16ZM2657.9,245.05c-2.44-2.49-36.86,17.97-41.82,21.16-44.4,28.48-85.06,66.99-118.16,107.84l5.94,1.03c-4.44,19.82-15.83,38.31-17.57,59.46l2.68,4.48c24.46-8.95,45.8-17.03,53.97-43.95,2.86-9.42,10.49-62.78,15.99-64.03l4.59,4.48-13.6,65.5c3.46.9,4-1.43,6-2.98,32.06-24.74,23.76-44.86,28-80,1-8.32,2.94-16.7,4.03-25.01l5.94-.02c2.78,2.64-2.92,36.16-2.01,43.03.36,2.74,1.12,5.89,3.99,2.98,5.26-16.9,16.77-39.24,29.22-51.8,2.08-2.1,2.87-5.09,6.8-4.18l-30.01,66.97c1.6,3.14,3.57.01,5.11-.89,5.66-3.32,18.19-15,21.96-16.05,4.11-1.15,3.31,2.17,2.61,4.61-3.5,12.17-25.29,20.99-34.69,29.32-16.93,15.01-27.34,38.96-46.96,52.02l41.99-7.99,1,6c18.65-19.01,37.22-39.54,47.37-64.63,13.53-33.43,12.77-71.95,17.63-107.35ZM661.78,284.88c0-15.41-12.49-27.9-27.9-27.9s-27.9,12.49-27.9,27.9,12.49,27.9,27.9,27.9,27.9-12.49,27.9-27.9ZM1116.71,300.13c0-15.22-12.34-27.56-27.56-27.56s-27.56,12.34-27.56,27.56,12.34,27.56,27.56,27.56,27.56-12.34,27.56-27.56ZM3345.29,320.43c2.73-3.91,3.24-17.49,5.17-23.84,1.09-3.57,8.72-16.01,7.43-17.55-22.61,11.09-27.91,25.45-27.97,49.99,1.38,1.56,14.37-7.18,15.37-8.6ZM3539.43,293.5c-38.76,2.12-32.03,64.68,8.12,54.16,31.45-8.24,19.73-55.68-8.12-54.16ZM2095.38,303.52c-21.12,3.78-21.73,37.24-1.54,42.57,39.77,10.49,44.05-50.18,1.54-42.57ZM3879.91,485.04v-29c0-2.9-31.41-39.04-25.99-50.99,5.31-5.77,15.44,31.89,23.98,29.98-2.04-8.68,2.24-21.03,1.58-28.53-.94-10.65-17.74-29.95-5.6-39.45,2.68,2.08,3.48,23.85,10,25.99-1.96-5.13,17.08-43.88,22.01-37.99l-11,41.98c9.37-8.1,15.69-21.5,23.98-30.02,2.09-2.15,3.49-4.68,7.02-3.96,8.14,9.32-30.49,43.08-34.9,50.08-4.71,7.49-5.13,28.41-.09,35.87,3.11-.06,21.27-26.67,25.31-30.65,2.66-2.63,2.67-4.31,7.68-3.3,1.99,1.85-10.34,19.86-12.33,22.65-3.59,5.03-20.53,22.33-21.26,24.75-2.26,7.48,2.46,15.1,1.62,22.58l31.01-27.98c4.72-1,3.33,4.02,2.49,6.49-4.12,12.09-24.82,25.65-34.47,33.54l-7.07,28.93c6.23,1.95,12.95-6.49,19.16-7.07l3.86,4.09c3.83-1.42,17.77-26.74,19.97-32.03,18.97-45.47,4.18-86.45,6.95-133.05,1.06-17.73,4.92-37.97,10.08-54.9-29.51,6.36-68.62,33.85-86.87,58.11-24.44,32.52-16.69,62.78-11.13,99.88.47.61,4.05-1.7,6.06-.93,2.26.86,25.69,27.97,27.93,24.92ZM3323.9,307.05c-1.37-1.5-11.03,6.56-12.94,8.04-18.8,14.57-29.16,26.12-27.03,51.95,7.42-7.4,27.69-18.2,32.88-26.1,4.57-6.96,3.68-25.06,7.09-33.89ZM1729.9,309.05c-61.27,17.07-125.51,19.6-174.94,64.04-3.34,3-39.24,40.17-37.05,41.93,6.25-1.18,19.52-5.07,23.9-9.08,4.88-4.47,10.72-18.17,17.31-24.69,2.04-2.01,21.36-17.32,16.49-5.51-1.5,3.64-20.37,22.1-17.69,25.3,6.27-4,20.7-3.56,25.91-7.07,2.52-1.7,14.99-25.24,19.23-30.77,6.38-8.33,13.72-15.64,21.89-22.13l4.94,3.01c1.45,5.5-14.63,17.83-18.83,23.13-1.76,2.21-14.17,21.03-13.17,21.81l36.58-9.89c6.54-10.56,26.35-46.66,38.42-48.12,4.22-.51,3.71,2.09,2.67,4.7-1.69,4.24-22.73,26.24-19.66,29.32,18.32-4.2,29.52-23.71,45.98-29.98,6.37,6.55-34.14,39.39-39.95,42.99l23.97,5.01v5.99c-21.24,1.66-38.95-10.45-57.97,5.01-.04,5.68,31.05,8.08,34.73,9.28,3.36,1.1,2.62,6.09,4.21,5.71,7.99-1.91,30.68-30.26,35.85-38.16,4.63-7.06,31.01-58.11,27.16-61.82ZM3255.89,403.04c.16-9.74,14.39-17.18,17.14-25.88,2.44-7.74.75-21.37,2.86-30.12-17.37,10.76-30.64,32.12-24.03,53.09.88,2.8-1.21,3.52,4.03,2.91ZM2781.93,375.04c10-5.29,18.76-8.65,15.96-22-4.04.83-17.45,20.38-15.96,22ZM1016.13,397.86c0-16.06-13.02-29.09-29.09-29.09s-29.09,13.02-29.09,29.09,13.02,29.09,29.09,29.09,29.09-13.02,29.09-29.09ZM1991.9,373.05c-60.9,18.33-123.16,39.72-165.94,89.04-14.79,17.05-25.22,37.27-39.26,54.74-2.29,2.85-19.15,17.91-16.79,20.19l31.09-11.89,11.89-30.07c7.15,6.43-.37,16.02,1.01,23.95,1.72,1.78,28.48-11.26,30.92-14.06,10.17-11.66,5.26-54.63,18.1-59.91,4.04-1.66,2.89,2.74,3.02,5,.84,14.86-8.13,29.88-7.06,44.97l39.11-32.89c4.72-7.44,5.13-31.84,11.84-36.16,10.75-6.93.04,18.19,3.05,21.05,6.34-4.84,35.32-38.06,40.02-37.94,2.97.07,3.12,4.86,1.94,7.89-3.23,8.29-14.91,13.13-16.94,22.05,2.4,2.2,24.34-13.38,25.98-1.02-1.62,7.83-34.52,10.08-41.84,14.18-7.74,4.34-19.09,20.21-26.15,26.83,17.6,3.44,39.49-7.53,55.08-8.04,2.84-.09,9.06-.52,7.94,4.06-2.96,7.34-28.72,12.56-36.57,13.45-11.31,1.27-30.09-1.58-39.02.98-1.65.47-26.64,19.07-27.42,20.59-.83,4.59,2.02,2.71,4.98,2.95,6.63.54,13.85,1.86,19.93,2.11,13.87.57,32.88-3.86,44.24-2.25,4.03.57,2.52,4.46,3.8,4.18,5.64-1.2,26.69-21.53,31.04-27.01,25.55-32.14,23.46-78.34,31.98-116.99ZM2389.91,451.04h43c4.54-3.97,12.86-29.88,18-29.96,9.49-.15-6.1,26.94-4.99,27.95,6.55-.07,24.76-1.54,28.98-6,4.42-4.68,5.61-30.34,8.45-39.55,2.66-8.61,8.55-15.66,10.54-24.44-19.3,18.74-39.2,36.73-62.64,50.34-13.53,7.86-29.29,12.53-41.34,21.66ZM3233.89,419.04c1.77,10.09-6.25,20.23,3.02,27.96,12.65-17.34,10.91-33.75,8.58-53.67-.31-2.63.64-4.41-2.61-6.28-3.82-.71-4.69.53-6.73,3.24-3.26,4.33-13.7,25.46-13.95,30.15l7.68,6.61,4.01-8.01ZM3343.9,393.06l-76,10.97c-3.23,5.3-15.45,26.2-11.97,31.01,18.62-9.68,33.53-9.88,7.78,6.8-6.99,4.53-14.13,1.63-11.79,15.19l39.33-31.65,52.65-32.32ZM1661.91,411.06c-16.68,4.41-40.18-12.85-54.54-11.59-8.08.71-20.24,7.89-29.45,7.58-6.08,6.61,29.39,10.75,23.99,19.98-13.28,3.39-29.97-14.14-40.76-13.88-15.84.39-55.04,18.95-67.24,29.87l48.98-4.12c40.61,4.33,86.55-1.2,119.02-27.84ZM3115.9,409.05l-33.73,6.25c.23,11.32-11.9,16.65-18.25,24.75,9.11,6.68,44.07-16.79,47.98-13,.24,12.2-16.85,14-23.98,21,1.94,1.72,17.42,6.42,13.98,10.98-4.29,5.68-26.07-7.34-31.18-7.96-8-.97-19.71,4.23-28.8,1.98-3.18,8.2,33.58,19.26,27.98,23.98-30.48,3.96-41.72-33.72-73.99-19.97,3.75,8,16.44,7.73,15.99,17.96-12.03,2.58-26.04-17.85-36.49-11.59-2.55,1.53-4.2,2.07-3.49,5.59,15.97,1.88,31.07,10.87,45.99,15.02,63.18,17.6,102.52-7.42,98-75ZM3779.59,439.2c0-12.15-9.85-22-22-22s-22,9.85-22,22,9.85,22,22,22,22-9.85,22-22ZM3069.9,419.05c-13.51.17-23.42-2.5-34.98,6-2.11,1.55-16.93,15.79-16.97,16.99-.11,3,4.23,2.13,5.95,2.06,5.94-.26,20.45-.23,24.6-1.47,2.72-.81,23.62-21.61,21.4-23.58ZM2585.91,421.06c-15.15,7.03-35.68,3.26-49.66,7.32-5.16,1.5-29.09,14.66-35.73,18.27-1.86,1.01-4.4,1.9-4.61,4.37l12.02,2.04-2.02,5.96c28.56-6.21,59.81-15.72,80-37.96ZM3025.91,421.06c-16.89-1.7-31.79,2.4-46.75,9.77l-3.23,20.21c7.3-4.79,23.75-3.39,29.91-7.07,2.34-1.4,6.08-9.78,8.99-13.01,3.3-3.65,9.1-5.06,11.07-9.91ZM3227.89,461.04c.5-3.37-.56-6.4-1.39-9.59-.99-3.78-3.1-12.41-6.57-14.4-.4,7.95.6,19.09,7.96,23.99ZM4149.9,445.05c-30.74-.67-52.36-10.46-84.01-3.03-19.6,4.6-59.97,28.26-71.01,44.99-.92,1.4-2.22,3.42.02,4.02,5.32-5.12,24.77-7.39,28.52-10.48,8.39-6.92,10.42-20.66,28.44-26.56,2.16-.71,10.39-2.66,8.05,2.04-7.62,6.74-18.31,10.73-21.99,21,27.68,5.89,41.75-17.82,63.99-27.97.51,3.69-.03,5.91-1.89,9.09-2.87,4.92-10.81,8.36-14.09,12.88l35.98-7.97c2.88,2.44-11.82,15.48-15.99,14.06l1.99,7.92-39.98.02c-2.05,8.89,27.65,19.14,23.98,23.97-7.84,10.31-35.4-21.86-42.87-22.08-7.49-.23-19.24,5.16-27.11,6.12-2.81,7.79,29.39,19.22,23.98,23.97-13.16,4.73-29.65-18.04-37.27-19.57-3.11-.62-22.63,8.58-22.68,10.58l55.51,18.45c24.06,5.09,42.21,2.84,60.42-14.47l48.01-66.97ZM403.89,445.04c-10.71,13.69-23.01,21.1-40.91,22.07-10.23.55-45.57-9.55-38.81,10.6,1.31,3.9,18.23,10.5,22.91,11.15,29.41,4.1,59.37-11.07,56.8-43.82ZM2955.91,459.02c6.68.28,8.85-6.73,7.98-11.98-4.77,2.16-5.53,8.06-7.98,11.98ZM2429.91,465.04h55c1.73,0,16.42-2.97,16.99-5.98-8.24,2.1-15.78-3.85-23.04-4.11s-29.96,5.22-39.36,6.68c-2.37.37-9.72.48-9.58,3.41ZM1343.91,459.06l-49.53,7.3-34.47,30.66,26.77-1.86,4.21,7.86c20.36-11.15,38.39-25.98,53.02-43.96ZM2911.91,514.04v29c-3.29.18-4.62.68-6.96-2.08-4.97-5.88,2.83-34.76-3.3-46.67-1.7-3.3-13.34-14.25-16.79-15.22-6.3-1.72.1,12.98-5.93,9.95-4.75-2.39-1.55-12.42-6.1-17.91-2.08-2.51-11.51-7.67-14.92-5.08,19.66,20.84,32.99,50.37,42.89,77.11,21.71,58.64,17.36,121.45,96.13,127.87,6.32.52,66.87,1.19,66.99-2.97-4.66-3.23-24-9.58-25.97-14.05-5.23-11.85,19.67,2.18,21.37,2.64,10.96,2.97-3.51-13.13-5.44-16.57-31.25-55.71-55.14-112.14-111.15-148.89-3.78-1.39-1.58,3.96-5.74,4.1-4.4.15-20.31-4.97-21.08-4.22l14.48,23.49c9.9,4.74,45.13,12.13,49.25,21.76.94,2.2,1.28,5.82-2.52,4.54l-35.22-11.79c-.94.93,9.41,22.14,11.07,23.91,4.39,4.67,29.87,9.72,38.3,13.7,10.27,4.86,17.92,13.36.1,9.89-8.7-1.69-18-6.73-26.46-9.54-2.06,5.39,11.58,24.37,15.12,26.88,3.35,2.38,10.06,3.13,14.57,5.43,4.94,2.51,30.1,14.1,31.23,16.77.37.86.79,4.96-.95,4.96l-24.99-7.99,17.95,22.99c-4.48,8.79-15.85-5.3-17.94-3-.82,8.29,4.67,15.43,5.85,23.15.45,2.96,1.35,5.66-2.83,4.82-13.1-8.46-9.82-26.11-14.54-37.47-1.79-4.33-15.91-21.45-19.92-25.95-1.18-1.33.12-3.86-4.56-2.55-2.12,19.77,4.32,38.61,5.98,57.98-2.8.64-3.29-.41-5.05-1.93-15.51-13.47-5.67-50.4-9.4-68.6-1.69-8.27-11.21-18.84-13.59-27.44l-3.97.99c1.49,18.05-2.8,35.45-6.03,52.99h-5.95c-2.32-33.92,15.76-66.28-9.06-95.95-2.3-2.75-4.48-.96-4.95.95ZM2929.91,485.02c-10.73-9.51-26.49-15.18-40-19.96,9.45,15.26,22.75,19.03,40,19.96ZM3871.88,527.03l7.73-28.54-29.68-27.45c3.6,28.12,2.95,56.09-2,84l17.64-19.33c-4.5-9.09-10.93-17.79-9.65-28.66,4.34-5.11,10.9,16.3,11.53,17.44,1.26,2.29-.11,3.39,4.43,2.54ZM1277.91,507.06c-9.32,2.39-22.91-2.74-30.81-2-3.54.33-12.77,5.5-16.8,7.47-1.11.54-8.11.67-4.39,4.49,6.18,6.34,45.9.43,51.99-9.95ZM1207.92,521.06c1.09,4.2,5.44,4.43,8.97,3.96l2.98-2.99-3-3.01-8.95,2.03ZM1913.9,523.06c-14.26-.5-28.7.62-42.96-.05-7.43-.35-19.06-4.58-25.84-3.96-3.43.32-24.21,9.86-21.18,13.96,4.97,2.51,13.2,3.28,17.53,5.52,3.56,1.84,3.93,5.49,4.88,6.06,4.56,2.73,39.33-8.9,46.62-11.52l20.95-10.02ZM3259.91,519.04h-44c4.51,6.29,16.19,4.77,23.04,7.7l20.96-7.7ZM3489.91,635.06c-38.07-9.91-72.42-29.68-102.93-54.08-9.6-7.68-19.38-19.42-29.23-26.77-24.2-18.06-57.72-31.45-87.83-33.15l3.99,5.96-17.99,4.05c-1.01,1.33,3.46,3.65,4.6,4.37,3.63,2.27,29.14,16.93,30.87,17.28,11.37,2.27,29.89-7.51,42.52-1.65.44,5.28.2,3.3-3.04,3.91-10.19,1.9-21.07,1.58-30.95,5.06l35.39,32.59c12.57,3.63,37.92-7.88,48.63-2.61.92.45,2.52,2.57,1.97,3.01l-39.99,6.03c-.94,3.84,1.41,3.85,3.35,5.63,10.97,10,37.33,23.77,52.02,23.83,3.62.01,6.23-3.13,9.72-3.37,7.6-.5,15.29.12,22.88-.09l-1.98,7.03-8.02.97c-1.58,6.43,8.27,3.83,12,6.01,7.19,9.84-29.47,3.94-32.45,3.44-7.28-1.22-14.23-4.4-21.54-5.44-1.48,1.21,30.89,38.49,6.9,24.08-10.69-6.42-17.37-23.65-24.82-33.18l-34.07-22.91c2.44,7.88,4.01,16.27,7.01,23.97,2.82,7.25,15.41,19.01,4.02,22-26.18-21.05-11.17-63.68-43.02-77.98-2.51,3.41,3.72,24.09,3.58,29.52-.07,2.69-1.92,5.1-4.58,4.47-11.76-20.22-.6-49.12-31.02-55.98,1.94,7.96,5.23,14.48,4.18,23.13-.61,5.02-7.81.12-.16,9.83,54.76,69.56,110.8,121.53,201.31,67.36,2.93-1.75,21.18-12.96,18.66-16.31ZM3899.91,529.06c-15.82,3.45-24.42,8.07-30,23.96,3.54,3.24,27.91-19.02,30-23.96ZM1835.91,545.06c-7.33.32-21.26-9.7-26.65-9.52-2.52.08-29.25,10.9-29.31,12.49l3.29,5.09c3.54.92,42.39-2.85,47.48-4.28,2.3-.65,4.82-.68,5.19-3.78ZM3263.89,575.04l-10-30.98c-11.82-5.39-24.81-9.84-37.98-9l47.98,39.98ZM2093.92,579.05c-2.55,2.24,15.85,22.77,17.02,26.12,1.61,4.6-1.47,8.73.85,10.84,4.92,4.49,42.2,22.89,50.16,25.99,31.22,12.16,52.55,13.11,79.8-8.13l58.13-53.83c.09-4.2-24.76-4.64-28.7-5.26-70.22-11.01-142.44-36.06-213.25-13.71-2.87,2.87.18,3.62,2.96,3.98,7.4.94,24.52.83,32.05,0,11.78-1.29,34.48-13.22,45.67-9.74,17.03,5.31-20.07,11.16-21.77,11.66-2.92.86-3.48-1.11-2.91,4.03,9.3.98,22.3,9.39,30.92,9.69,17.49.6,43.42-18.84,55.82-15.44,3.78,1.04,2.91,5.83.77,7.34-6.5,4.61-26.83,4.88-33.51,13.44,31.62,17.26,52.58-13.83,83.98-11,1.34,12.68-17.38,7.57-23.98,15l23.98-1c.71,3.58-1.72,5.1-4.53,6.45-13.39,6.44-42.73,8.21-57.45,5.55l12.16,12.82c3.46,4.29,16.7,7.93,18.9,11.1,5.51,7.93-4.6,6.45-9.12,5.11-22.36-6.62-33.06-34.11-58.99-35.04-2.45-.09-6.46-1.06-4.94,2.95,1.72,4.55,22.14,26.91,17.97,31.02-18.51-2.87-24.25-31.96-38.08-40.9-8.93-5.77-23.42-7.88-33.9-9.08ZM795.9,561.06c-28.98-2.64-56.8-5.43-83.96,7.01l-38.02,18.95c5.8-.56,11.21,1.77,16.91,2.1,28.96,1.68,38.5-8.56,63.54-16.63l41.53-11.44ZM703.91,561.04h-29c-2.74,0-17.91,2.15-21.06,2.94-9.46,2.37-21.35,13.38-31.93,15.09-2.78,2.86.14,3.64,2.95,3.98,7.67.93,16.11-1.08,24.06,2.01l54.98-24.02ZM862.91,591.04h-38c-1.49,0-12.58,2.82-13,5.98l71.97,16.09.04,5.92-26.01-1.97,1.01,7.97c-14.8-9.39-31.17-16.01-49-15.98-4.7,4.13,28.4,29.66,27.98,35.98-8.34,7.62-39.45-33.65-46.09-36.88-4.22-2.05-25.43-5.08-30.86-5.18-3.13-.06-3.48-.4-3.01,3.04l25.95,34.07c1.15,4.11-2.04,3.31-4.53,2.48-11.52-3.82-31.73-41.52-40.44-41.52h-39c7.76,16.45,27.14,28.34,37.09,41.91,2.01,2.74,3.77,4.04,2.9,8.08-21.76-8.67-36.97-30.62-48.96-50.02l-4.02-1.98c-7.86.39-15.65-.3-23.47-.6-1.12-.04-5.39-2.23-5.49,1.59-.2,7.41,26.2,40.25,33.91,46.01-1.57,1.76-2.26,3.06-4.92,3.03-12.36-.14-34.51-39.33-35.3-51.76l-31.72-4.26c-3.77,4.12,15.8,29.55,18.44,34.6,1.14,2.18-.7,5.37.53,7.3,3.32,5.16,45.05,29.45,53.08,33.03,81.6,36.37,135.32-9.16,213.48-20.38,18.14-2.6,36.12-3,54.45-2.57-41.66-40.62-93.09-74.16-152.01-81.97l.08,7.03c-21.3,3.53-42.43,7.52-62.57,15.45-2.66,1.05-9.02,2.47-9.49,5.48,15.71-1.32,31.27,3.8,47,2.03,10.94-1.23,24.28-7.43,36.57-9.43,15.1-2.45,29.48-4.35,44.45.39l-1.03,7.03ZM625.91,565.06l-61.99,4.97c8.12,3.86,28.45,9.47,36.9,8.92,5.05-.33,21.31-9.5,25.09-13.89ZM2081.35,579.62c-6.87-5.7-32.29-1.64-41.47.42-2.2.49-6.47.02-5.96,2.98l65.97,26.02-18.55-29.41ZM621.89,621.04l-12.05-26.93-29.93-5.05,41.98,31.98Z" style="fill: #9d8042;"/>
    <path d="M1543.89,133.03c6.18,33.92,27.15,62.18,38,94-17.55-14.87-44.71-68.99-42.03-90.99.33-2.75,1.28-5.95,4.03-3.01Z" style="fill: #9d8042;"/>
    <path d="M1619.92,221.03l26.32-50.65,5.64-5.34c.43,9.56-4.12,20.11-8.34,28.64-1.39,2.81-19.3,31.94-23.63,27.35Z" style="fill: #9d8042;"/>
    <path d="M1603.9,163.04c2.02,18.84,3.3,40.87-1.72,59.37-.93,3.43,1.44,5.57-4.26,4.62.34-20.2-.61-40.97,2.02-61.01.47-3.59-.85-3.28,3.96-2.98Z" style="fill: #9d8042;"/>
    <path d="M2771.9,197.03c-2.14,2.24-13.35-9.98-14.86-12.12-7.95-11.17-19.85-43.55-20.92-57.15-.33-4.23-1.35-7.77,2.8-10.69,2.43.04,13.43,39.87,16.03,45.93,2.11,4.91,18.76,32.13,16.96,34.02Z" style="fill: #9d8042;"/>
    <path d="M2835.9,141.05c1.18,11.19-3.41,22.78-8.23,32.75-1.21,2.5-13.86,25.41-17.75,21.23l20.98-50.08,5-3.9Z" style="fill: #9d8042;"/>
    <path d="M2785.91,141.04h3.97c-.51,1.92,2.03,4.26,2.03,5v53h-3.99c1.68-3.74-2.01-9.19-2.01-11v-47Z" style="fill: #9d8042;"/>
    <path d="M2201.9,51.02c-11.67,4.7-21.18-2.63-21.99-14.94l4.02-2.07c2.71,10.6,16.04,8.07,17.98,17.02Z" style="fill: #9d8042;"/>
    <rect x="2211.37" y="28.86" width="5.07" height="6.36" transform="translate(1492.08 2125.22) rotate(-71.8)" style="fill: #9d8042;"/>
    <path d="M2341.9,251.02c-1.71,8.47,2.68,21.63,12.96,21.81,5.86.1,14.96-9.09,12.13,4.29-7.09,5.87-20.86,5.91-27.14-1.02-6.07-6.7-9.67-27.19,2.05-25.07Z" style="fill: #9d8042;"/>
    <path d="M2365.92,253.05h2.96c8.59,3.35-3.4,19.27-2.96,0Z" style="fill: #9d8042;"/>
    <path d="M1929.82,37.12c0,8.97,3.09,18.78,13.28,19.91,3.25.36,20.54-4.79,13.89,6.09-2.49,4.07-13.64,4.57-18.15,4.02-12.79-1.57-22.15-18.4-16.62-29.8l7.6-.22Z" style="fill: #9d8042;"/>
    <path d="M1959.9,45.03h-5.98c-.25-4.18-.76-7.49,2.99-9.95,3.75,2.46,3.24,5.77,2.99,9.95Z" style="fill: #9d8042;"/>
    <path d="M1913.9,223.05c2.29,3.07-4.78,7.08-7.47,7.63-8.47,1.7-19.21-5.79-21.63-13.52-1.97-6.29-3.01-18.67,6.11-14.14,2.16,5.74,1.45,13.12,7.08,16.95,3.99,2.72,15.22,2.18,15.9,3.09Z" style="fill: #9d8042;"/>
    <circle cx="1919.9" cy="211.98" r="4.55" style="fill: #9d8042;"/>
    <path d="M1999.9,259.05c-.36,5.34.97,16.46,6.02,18.98,4.17,2.08,11.19-.2,13.49,5.96l-1.74,4.84c-11.03,2.51-23.87-3.1-25.67-14.93-.98-6.41-.32-14.54,7.9-14.85Z" style="fill: #9d8042;"/>
    <path d="M2027.9,265.04v7.98s-2.96,0-2.96,0c-3.14-2.1-3.49-4.28-3.02-7.97h5.98Z" style="fill: #9d8042;"/>
    <path d="M2111.92,329.05l-.19,7.81c-18.88,5.55-37.05-8.94-20.82-25.77l5.8,16.15,15.21,1.81Z" style="fill: #9d8042;"/>
    <g>
      <path d="M3929.9,319.05c3.6,3.59-15.58,21.17-16.98,25.98-6.3-2.43.96-11.94,2.94-15.04,3.18-4.98,6.83-11.98,14.04-10.94Z" style="fill: #9d8042;"/>
      <path d="M4041.9,259.03c-4.91,4.52-19.43-15.79-21.59-19.39-6.82-11.37-11.67-25.31-12.39-38.59,4.12-.86,4.63,2.05,6.37,4.61,4.87,7.16,8.06,18.98,12.58,27.42,1.93,3.59,17.02,24.12,15.03,25.95Z" style="fill: #9d8042;"/>
      <path d="M4057.91,254.04c-.48,1.67-3.84,3.65-5.99,2.99-4.06-18.61-1.63-39.16,1.98-57.02l4,2.02v52Z" style="fill: #9d8042;"/>
      <path d="M4087.9,211.05c-.01,4.16.49,8.42-.44,12.54-1.09,4.85-19.49,37.52-25.54,31.44-.35-8.71,7.51-14.14,11.59-21.39,3.41-6.05,5.91-12.7,9.42-18.66,1.52-2.58-.36-5.04,4.96-3.94Z" style="fill: #9d8042;"/>
      <path d="M3671.9,113.02c-1.05,15.23,6.18,24.19,22,22.03.6,2.83-.24,3.26-2.06,4.91-13.05,11.77-35.15-10.96-26.1-25.74l6.16-1.19Z" style="fill: #9d8042;"/>
      <path d="M3703.9,123.03c-7.38,1.18-8.74-3.18-7.98-9.98,7.38-1.18,8.74,3.18,7.98,9.98Z" style="fill: #9d8042;"/>
      <path d="M3587.9,181.05c-3.2,22.74-37.48,5.51-31.75-12.71l4.74-3.3c7.07,13.99,9.15,21.85,27.02,16Z" style="fill: #9d8042;"/>
      <path d="M3587.9,173.03c-3.54,3.81-8.95-8.01-2.99-7.95,2.06.02,4.23,6.62,2.99,7.95Z" style="fill: #9d8042;"/>
      <path d="M3825.79,239.12c2.76,15.28,3.86,18.14,20.15,18.88,6.86,7.73-3.84,9.81-10.84,9-13.1-1.51-20.97-16.14-15.04-27.83l5.73-.04Z" style="fill: #9d8042;"/>
      <circle cx="3853.9" cy="243.98" r="4.55" style="fill: #9d8042;"/>
      <path d="M3531.9,311.03c-1.33,21.64,10.67,15.32,26,14.02.27,17.41-30.29,14.8-33.55.56-1.64-7.17-1.69-16.19,7.56-14.58Z" style="fill: #9d8042;"/>
      <path d="M3552.91,305.08c3.78,0,3.78,9.92,0,9.92s-3.78-9.92,0-9.92Z" style="fill: #9d8042;"/>
      <path d="M3749.9,427.05c-5.09,11.81,1.51,19.45,14,18,.38,7.21-7.41,6.73-12.55,5.57-11.39-2.55-11.03-13.21-7.62-22.41l6.17-1.16Z" style="fill: #9d8042;"/>
      <path d="M3771.9,433.03c-3.02,3.02-8.53-5.95-2.99-5.95,1.32,0,4.14,4.8,2.99,5.95Z" style="fill: #9d8042;"/>
    </g>
    <g>
      <path d="M937.63,148.85c1.3-.74,4.61-12.74,12.27-9.8,5.29,5.31-15.32,15.64-18.94,15.82-19.6,1-32.14-31.74-14.08-41.91l5.04,3.12c-5.08,9.77-7.24,21.79,3.26,28.69,1.89,1.24,11.1,4.86,12.45,4.08Z" style="fill: #9d8042;"/>
      <path d="M752.37,155.53c9.59-11.04,5.34,10.26,5.4,12.47.45,15.99,15.97,12.93,19.17,17.01,5.36,6.83-8.76,6.33-14.18,4.17-11.71-4.67-18.15-24.71-10.39-33.65Z" style="fill: #9d8042;"/>
      <path d="M791.9,167.05c1.48,3.26-2.3,11.95-4.99,11.95-4.71,0-4.7-15.31,4.99-11.95Z" style="fill: #9d8042;"/>
      <path d="M973.9,383.05c-3.16,17.96,5.99,22.2,19.97,28.99-11.54,13.37-29.69-1.58-30.06-16.09-.17-6.54,2.13-14.31,10.09-12.9Z" style="fill: #9d8042;"/>
      <polygon points="1007.9 389.05 1007.9 401.03 1002.13 397.76 1002.13 392.31 1007.9 389.05" style="fill: #9d8042;"/>
      <path d="M1077.9,289.04c-1.65,15.33,2.43,22.09,18.05,22.95,2.67,1.94,2.82,4.28.03,6.1-6.13,3.98-20.39-2.19-23.84-8.28-3.77-6.65-5.17-23.07,5.77-20.77Z" style="fill: #9d8042;"/>
      <path d="M1105.9,303.02c-5.52,3.89-8.67-11.85-2.99-11.95,3.68-.06,5.91,9.89,2.99,11.95Z" style="fill: #9d8042;"/>
      <path d="M616.37,271.53c2.04-2.35,6.01-2.79,7.53.54-6.58,19.85,3.02,20.96,16.64,27.34,7.02,3.29-1.88,7.35-5.75,7.56-16.99.92-28.34-24.02-18.42-35.44Z" style="fill: #9d8042;"/>
      <polygon points="651.9 285.05 652.05 293.78 645.92 295.03 651.9 285.05" style="fill: #9d8042;"/>
      <path d="M1099.9,181.05c-1.44,15.8.87,24.06,18.01,24.99,10.75,7.31-13.28,15.13-23.73,1.73-6.06-7.78-7.65-27.48,5.72-26.72Z" style="fill: #9d8042;"/>
      <path d="M1127.9,199.05l-6.16-1.18c-1.62-4.64-3.76-9.36,1.2-12.82,5.98-1.29,5.35,10.42,4.96,14Z" style="fill: #9d8042;"/>
    </g>
  </g>
</svg>